/* XPM */
static char * character_w_sword_xpm[] = {
"32 32 206 2",
"  	c None",
". 	c #2F200F",
"+ 	c #2C1E0C",
"@ 	c #30210F",
"# 	c #271A09",
"$ 	c #C39C8A",
"% 	c #BC9483",
"& 	c #B48C7A",
"* 	c #967F6B",
"= 	c #8B8472",
"- 	c #372614",
"; 	c #392715",
"> 	c #3B2917",
", 	c #422D17",
"' 	c #47301C",
") 	c #897764",
"! 	c #8B7965",
"~ 	c #B2836C",
"{ 	c #9E7157",
"] 	c #92654B",
"^ 	c #956F55",
"/ 	c #7C563C",
"( 	c #4F3925",
"_ 	c #58412B",
": 	c #A2755E",
"< 	c #A1785E",
"[ 	c #A27761",
"} 	c #AA7C65",
"| 	c #AB755C",
"1 	c #654730",
"2 	c #8A6045",
"3 	c #A57157",
"4 	c #76553C",
"5 	c #9E745E",
"6 	c #B98D76",
"7 	c #BE927C",
"8 	c #B68671",
"9 	c #B88771",
"0 	c #B68B75",
"a 	c #626261",
"b 	c #E4D3CB",
"c 	c #EDE1DC",
"d 	c #EADED7",
"e 	c #E7D9D2",
"f 	c #BB8F7E",
"g 	c #DFCBC1",
"h 	c #7F5B3F",
"i 	c #A87157",
"j 	c #C29784",
"k 	c #926453",
"l 	c #70533E",
"m 	c #5A4939",
"n 	c #5E4C3A",
"o 	c #9E7C6C",
"p 	c #956144",
"q 	c #925F40",
"r 	c #925C49",
"s 	c #8C5644",
"t 	c #7D493A",
"u 	c #513E33",
"v 	c #165D51",
"w 	c #1F8C7A",
"x 	c #4E7062",
"y 	c #7A5444",
"z 	c #A06D56",
"A 	c #86543A",
"B 	c #6A6A6B",
"C 	c #855A3F",
"D 	c #624734",
"E 	c #28816F",
"F 	c #2ED6B9",
"G 	c #27B7A1",
"H 	c #4A7060",
"I 	c #81583F",
"J 	c #776148",
"K 	c #855B43",
"L 	c #01A4A4",
"M 	c #00ACAC",
"N 	c #0BA09E",
"O 	c #1B918C",
"P 	c #1E8D87",
"Q 	c #328177",
"R 	c #3E7E72",
"S 	c #7C634A",
"T 	c #8A583B",
"U 	c #905C3E",
"V 	c #65513E",
"W 	c #2A9380",
"X 	c #2DC5AA",
"Y 	c #21685B",
"Z 	c #2E7B71",
"` 	c #20918A",
" .	c #119997",
"..	c #0A9D9C",
"+.	c #33847A",
"@.	c #88573B",
"#.	c #5B5846",
"$.	c #219482",
"%.	c #2BC5AB",
"&.	c #12726A",
"*.	c #029F9F",
"=.	c #04A3A9",
"-.	c #0BA5A4",
";.	c #1C8F8A",
">.	c #0E827F",
",.	c #1F9683",
"'.	c #14756E",
").	c #00A8A8",
"!.	c #01A3A3",
"~.	c #009D9D",
"{.	c #00A9A9",
"].	c #159793",
"^.	c #2DC8AC",
"/.	c #14726C",
"(.	c #0B9492",
"_.	c #0E9F9D",
":.	c #0A7D7B",
"<.	c #073E39",
"[.	c #09807F",
"}.	c #7B8675",
"|.	c #03A9A9",
"1.	c #1F9684",
"2.	c #369884",
"3.	c #586D5E",
"4.	c #275247",
"5.	c #465045",
"6.	c #7A7565",
"7.	c #149592",
"8.	c #06959E",
"9.	c #088785",
"0.	c #2CC8AD",
"a.	c #24695C",
"b.	c #13554A",
"c.	c #7C5D4C",
"d.	c #9F7560",
"e.	c #098280",
"f.	c #1B8473",
"g.	c #197464",
"h.	c #5C5547",
"i.	c #98705B",
"j.	c #139B98",
"k.	c #06767B",
"l.	c #0C4740",
"m.	c #204D3C",
"n.	c #67503A",
"o.	c #9A7059",
"p.	c #13A29F",
"q.	c #059BA3",
"r.	c #03807F",
"s.	c #0C4841",
"t.	c #10564E",
"u.	c #355F52",
"v.	c #695743",
"w.	c #604723",
"x.	c #735336",
"y.	c #A77A64",
"z.	c #A97B64",
"A.	c #19959A",
"B.	c #00A5A5",
"C.	c #065553",
"D.	c #055653",
"E.	c #098D8C",
"F.	c #7F7C6A",
"G.	c #825E49",
"H.	c #4F3A1A",
"I.	c #574E37",
"J.	c #876653",
"K.	c #9C766C",
"L.	c #47509B",
"M.	c #3A4BA4",
"N.	c #3E46A2",
"O.	c #344798",
"P.	c #2E5198",
"Q.	c #1584A1",
"R.	c #0C899C",
"S.	c #05949C",
"T.	c #85826F",
"U.	c #9B725C",
"V.	c #705443",
"W.	c #124E43",
"X.	c #735847",
"Y.	c #A57A63",
"Z.	c #936D67",
"`.	c #503F9D",
" +	c #463AA4",
".+	c #483CA2",
"++	c #384196",
"@+	c #314C96",
"#+	c #147B9A",
"$+	c #168197",
"%+	c #7D766B",
"&+	c #7E604E",
"*+	c #3B3B31",
"=+	c #745848",
"-+	c #87816F",
";+	c #755E47",
">+	c #75523A",
",+	c #5F605F",
"'+	c #44389F",
")+	c #42369C",
"!+	c #795E46",
"~+	c #524992",
"{+	c #585288",
"]+	c #57508A",
"^+	c #68676E",
"/+	c #66656F",
"                . + + + + @ . # # # . . . # . #                 ",
"  $ % & & & * = . . - ; ; ; > > > , ' ' ; - . . * & * ) * & !   ",
"  & ~ { ] ^ ] / ( _ ^ : < [ } } ~ | < ~ { { 1 ' 2 ~ 3 4 3 ~ )   ",
"  * ] ] ] 1 4 / 5 : 6 7 6 6 8 8 ~ 9 7 7 6 0 3 ] | { 2 1 4 4 a   ",
"  ) / ] ] _ 1 / ~ 0 b c d e f } ~ ~ g c c d % < } ] h _ _ _ 1   ",
"  & } 2 / 4 4 _ i | 7 j j j k l m n o $ $ $ < p 1 1 2 } ] 4 a   ",
"  & } 2 4 h / _ q p 3 3 r s t u v w x y z | p A 1 1 2 ~ ] / B   ",
"  * ^ B B ~ | / 4 / C s A A A D E F G H I 2 h / J ~ | ] K / B   ",
"L L L M M M M N O P Q R S T p U V W F X Y Z ` O  .M M M M M L N ",
"L L M L L M L L L M L ..+.Q S K @.#.$.F %.&.*.L L N M M M L L L ",
"L L M M M M M =.M M M M M -.O O P ;.>.,.F %.'.*.L L ).!.).M L M ",
"....-.-.-.-.....L L M M M M M L ~.~.{.].^.F %./.(._.:.<.[.-.....",
"= = = = = = = }. .~.~.~.M M M M ~.~.M |.].1.F %.2.3.4.5.6.= = = ",
"} } : : } } } * 7.8.N L M M M M ~.~.M M {.9.,.F 0.a.b.c.: : } } ",
"} } : 5 } } d.) 7.~.L M M M M L L L M M M |.e.f.g.v h.i.5 [ } } ",
"} } } } } } 5 ) j.N M M M M L L M M M M M {.k.l.b.m.n.o.} } } } ",
"} } } } } } d.! p.L M M M =.q.L L M M M ).r.s.t.u.v.w.x.o.y.z.} ",
"} } } } } } } * A.q.8.8.q.q.q.=.=.=.=.M B.C.D.E.F.z.G.H.I.h.J.} ",
"} } } } d.d.} K.L.M.N.M.M.M.M.M.M.M.O.P.Q.R.S.q.T.} U.V.W.W.X.} ",
"d.d.} } Y.[ [ Z.`. + + + +.+ + + + + +.+++@+#+$+%+: : &+*+*+=+d.",
"  = / 2 ] / 2 ~  + + + + + + + + + + + + + +N.N.] ] = -+;+>+,+  ",
"  % %+k h / h {  + + + + + + + + + + + + + + + +/ ] k ) 4 1 B   ",
"  % %+S / / h ^  + + + + + + + + + + + + + + + +4 ^ 2 4 1 _ B   ",
"  & 4 1 _ ] ] /  + + + + + + + + + + + + + + + +/ / { } | } %+  ",
"  & / 4 4 2 2 /  + + + + +'+ + + + + +'+ + + + +/ h { } ~ } %+  ",
"  & / ] ^ / / / '+)+)+)+)+)+'+)+'+)+)+)+)+)+)+ +] ~ i ] ^ ] B   ",
"  & 2 2 2 1 4 {  + + + + +'+ + +'+ + + + +'+ + +] i { ^ ] ^ B   ",
"  % ] h / _ 4 ~  + + + + + + + + + + + + + + +.+J 4 2 ] ] ^ %+  ",
"  % ] h / 3 i {  + + +.+.+.+ + + + + + +.+.+.+.+] 2 2 2 / S %+  ",
"  $ i 2 !+~ ~ { ~+~+{+{+{+{+~+~+~+~+]+{+{+]+~+~+] ] K / 1 1 _   ",
"    }.}.}.}.}.B ^+^+^+B B ^+/+/+/+^+^+^+^+^+/+/+%+a J a a a     ",
"                a a B B B B a a a a B B B B a a                 "};
