/* XPM */
static char *result[] = {
/* columns rows colors chars-per-pixel */
"32 32 217 2 ",
"   c #2A1D0C",
".  c #332312",
"X  c #3A2817",
"o  c #3D2A18",
"O  c #113E3E",
"+  c #293329",
"@  c #3E3223",
"#  c #422C19",
"$  c #46311E",
"%  c #4C3816",
"&  c #4D3623",
"*  c #5B3D29",
"=  c #573B26",
"-  c #643925",
";  c #204D3C",
":  c #5B431E",
">  c #5D412B",
",  c #52422D",
"<  c #5A4532",
"1  c #534339",
"2  c #57493A",
"3  c #514A36",
"4  c #62442D",
"5  c #6D4E2B",
"6  c #644731",
"7  c #6C4C34",
"8  c #664B36",
"9  c #714F36",
"0  c #7B4B36",
"q  c #6D503A",
"w  c #725137",
"e  c #755339",
"r  c #79563A",
"t  c #7D593D",
"y  c #7F5237",
"u  c #73462D",
"i  c #1E2E50",
"p  c #3F3B55",
"a  c #382D6E",
"s  c #342C79",
"d  c #342A73",
"f  c #373179",
"g  c #36306B",
"h  c #443A54",
"j  c #443664",
"k  c #4C3A6B",
"l  c #47387E",
"z  c #0F4A43",
"x  c #174D49",
"c  c #14564A",
"v  c #165E51",
"b  c #395D56",
"n  c #2E5146",
"m  c #23685E",
"M  c #376F5F",
"N  c #1B5579",
"B  c #15736A",
"V  c #167672",
"C  c #2A7570",
"Z  c #2C7B6C",
"A  c #494644",
"S  c #5B4D42",
"D  c #564E45",
"F  c #5B5049",
"G  c #594B56",
"H  c #56534A",
"J  c #625244",
"K  c #65564D",
"L  c #695749",
"P  c #7C5A45",
"I  c #7A5C4B",
"U  c #775846",
"Y  c #6E5956",
"T  c #735A51",
"R  c #664F56",
"E  c #596758",
"W  c #5C715E",
"Q  c #7A634C",
"!  c #6C665C",
"~  c #796659",
"^  c #7D725E",
"/  c #5D4773",
"(  c #4F436C",
")  c #694D6A",
"_  c #6C5565",
"`  c #735675",
"'  c #45766A",
"]  c #567169",
"[  c #6B6768",
"{  c #756B66",
"}  c #726E6B",
"|  c #786A69",
" . c #697262",
".. c #7C716B",
"X. c #78766B",
"o. c #7D7C7A",
"O. c #797874",
"+. c #6F6A79",
"@. c #815C3E",
"#. c #8A583B",
"$. c #835D41",
"%. c #915E43",
"&. c #835D59",
"*. c #876144",
"=. c #8B6445",
"-. c #86634B",
";. c #8B664C",
":. c #8F6849",
">. c #936547",
",. c #93664B",
"<. c #956B4A",
"1. c #9A6E4C",
"2. c #98654A",
"3. c #9D714E",
"4. c #886857",
"5. c #946C54",
"6. c #9D6F58",
"7. c #89735A",
"8. c #9B7151",
"9. c #99745C",
"0. c #A1734F",
"q. c #A37653",
"w. c #A77955",
"e. c #AA7A55",
"r. c #AE7E58",
"t. c #A4765C",
"y. c #A26E4E",
"u. c #876C65",
"i. c #887769",
"p. c #947C6B",
"a. c #997865",
"s. c #84667B",
"d. c #867C76",
"f. c #A37661",
"g. c #A57A63",
"h. c #AA7C65",
"j. c #1D8776",
"k. c #30817F",
"l. c #5B8678",
"z. c #40857D",
"x. c #678277",
"c. c #778878",
"v. c #B4825B",
"b. c #B9855D",
"n. c #AD825E",
"m. c #93837A",
"M. c #9A8679",
"N. c #93806E",
"B. c #A7846C",
"V. c #B38668",
"C. c #A38C7D",
"Z. c #AF8D76",
"A. c #B48B76",
"S. c #B29078",
"D. c #372D83",
"F. c #3C338C",
"G. c #3A3185",
"H. c #3E3491",
"J. c #41379B",
"K. c #44399E",
"L. c #4A3E9C",
"P. c #413897",
"I. c #453BA3",
"U. c #4A3EA6",
"Y. c #0E7C83",
"T. c #2E799A",
"R. c #2A67A3",
"E. c #2173A4",
"W. c #564888",
"Q. c #5C5784",
"!. c #4E449B",
"~. c #53439B",
"^. c #574898",
"/. c #644D84",
"(. c #664F94",
"). c #676083",
"_. c #5948A4",
"`. c #098684",
"'. c #128987",
"]. c #1B9486",
"[. c #029696",
"{. c #199996",
"}. c #219684",
"|. c #2C9986",
" X c #289A96",
".X c #349B96",
"XX c #228781",
"oX c #17A09E",
"OX c #2BA29D",
"+X c #0B97A4",
"@X c #129FA2",
"#X c #03A5A4",
"$X c #03ABAB",
"%X c #08A9A7",
"&X c #17A8A7",
"*X c #04B0AF",
"=X c #26B1A7",
"-X c #48928C",
";X c #569287",
":X c #579A94",
">X c #4B9690",
",X c #678F82",
"<X c #6C9187",
"1X c #2BC5AB",
"2X c #2DC8AD",
"3X c #2ED6B9",
"4X c #2FD6B9",
"5X c #30D6B9",
"6X c #9B9796",
"7X c #888684",
"8X c #A6958A",
"9X c #B79785",
"0X c #B2A297",
"qX c #CCAC9F",
"wX c #D2B5A8",
"eX c #CFB1A3",
"rX c None",
/* pixels */
"rXrXrXrXrXrXrXrXrXrXrXrXrXrXrXrXrXrXrXrXrXrXrXrXrXrXrXrXrXrXrXrX",
"rX9X9XC.C.C.C.d.i.Y ~ ~ L K K S 1 1 2 D F T ~ i.p.S.B.i.B.Z.i.rX",
"rXS.V.3.<.1.<.w 4 X X o X .           . . $ 6 e =.b.q.e q.V.7.rX",
"rXp.<.<.<.7 w w > .         . o # $ $ & $ $ * e.w.3.=.4 9 e K rX",
"rXi.e <.<.* 4 w 4 .       . & q P -.5.5.&.u 7 r.v.<.@.* * * D rX",
"rXZ.v.=.r w 9 > 9 $     . & 4.V.A.V.h.A.V.6.$.7 4 4 *.v.<.e ! rX",
"rXZ.v.-.r @.r * w $   # * P 9XwXqXA.A.qXwX9X5.6 4 6 =.b.<.r | rX",
"rXN.1.{ } b.r.r 9 # X * y ,.S.qX9Xf.5.9XA.a.7.Q =.b.e.<.$.r { rX",
"rXp.1.~ ! v.w.>.t > 4 0 #.>.w.f.4.0 u 0 #.Q x.;XN.B.3.=.t r { rX",
"rXC.1.$.t 8.9.B.7.E W L 2 2 e u - - * , 8 W .X=X:Xi.t * 7 e { rX",
"rXM.=.e L X.x.,X:X.X|.m v j.M < - < b C j.{.&X*X>Xc.r 5 =.0.i.rX",
"rXm.r 6 H ] C  X&X%X$Xj.j.3X=XZ E ' {.%X$X%X$X*X>X .r r e.V.i.rX",
"rX8Xe.@.L ] C [.$X*X*X$X`.].3X2XB '.%X*X%X%X=XOXx.7.@.r <.0.i.rX",
"rX9Xb.-.r E C '.{.&XOX.XOX`.j.3X=XB #X#X X-Xx.c.^ 3.*.r =.1.| rX",
"rXm.t r r N. .' ;X,Xc.<X;X{.`.].3X1XB [.-XN.f.5.*.t *.<.<.<.J rX",
"rXM.t r r t.<.,.9.f.g.g.c.{.#X{.2X3X1XB k.p.~ + 8 e $.<.<.<.J rX",
"rXC.1.@.r $.%.2.6.t.f.t.X..X%X#X'.}.4X2Xj. .n 3 q e 5 * 7 e 2 rX",
"rXM.=.*.P e #.2.6.g.h.h.i..X%X$X#X`.].4X2Xm v q =.:.r 6 e $.2 rX",
"rXm.r *.1.4 y %.2.h.h.h.N.;X@X+X+X+Xj.j.B v D q.b.b.1.r ,.<.J rX",
"rXm.P =.1.w %.2.2.f.h.h.a.x.T.E.R.R.N z c ; , 3.n.q.9.^ ;.=.S rX",
"rXm.r =.<.r =.y.2.t.h.f.f.s.^.U.J.s i c m A > 5 *.:.m.7X~ r ! rX",
"rX6X..4.@.r $.1.2.6.t.a.u.s._.U.H.i i H.(.) * % 3 3 L 4.q 6 } rX",
"rX6XO.-.r r $.1.2.&.) ) /.L.U.P.H.H.K.I.(.` e @ z z < e 4 * [ rX",
"rX8Xw 6 * <.>.t P ) j f P.I.I.P.D.H.I.I.~./.U * + + e v.v.v.{ rX",
"rX8Xr 9 9 *.=.r I k j D.I.I.L.D.d P.K.J.L.` T 0 e r 3.v.b.v...rX",
"rX6Xr <.1.r r r L j d F.J.J.L.P.a D.J.J.L.L.k $.<.b.q.<.3.<.{ rX",
"rX8X*.*.*.7 w 1.T j f H.I.K.^./ j d J.K.K.L.` I :.w.3.1.<.1.{ rX",
"rX8X<.@.e * w v.4.p f H.I.L./ ) ) d J.I.U.(.).[ ! w =.<.<.1.X.rX",
"rX8X<.@.r 0.e.0.:.K ( W.Q.)._ T _ a P.L.!.W.+.u.;.=.=.*.t Q O.rX",
"rX0Xw.-.P V.b.3.8.-.Y _ ).d.I P U h l / Q.+.| 5.<.,.*.e 4 6 A rX",
"rXrXo.o.O.m.d.} O.{ { { c...S S D A H [ } } ......! Y K H K rXrX",
"rXrXrXrXrXrXrXrXrXrXrXrXrXrXrXrXrXrXrXrXrXrXrXrXrXrXrXrXrXrXrXrX"
};
