/* XPM */
static char *result[] = {
/* columns rows colors chars-per-pixel */
"32 32 207 2 ",
"   c #2A1D0C",
".  c #332312",
"X  c #3A2817",
"o  c #3D2A18",
"O  c #422C19",
"+  c #46311E",
"@  c #4D3623",
"#  c #5B3D29",
"$  c #573B26",
"%  c #643925",
"&  c #5D412B",
"*  c #51402E",
"=  c #534339",
"-  c #584739",
";  c #5E503B",
":  c #62442D",
">  c #644731",
",  c #654933",
"<  c #6C4C34",
"1  c #6A4E39",
"2  c #714F36",
"3  c #7B4B36",
"4  c #725137",
"5  c #755339",
"6  c #79563A",
"7  c #7D593D",
"8  c #7F5237",
"9  c #704B34",
"0  c #3F3B55",
"q  c #382D6E",
"w  c #342C79",
"e  c #342A73",
"r  c #3B317B",
"t  c #36306B",
"y  c #443A54",
"u  c #443664",
"i  c #4C3A6B",
"p  c #47387E",
"a  c #3A5D51",
"s  c #1F7A79",
"d  c #2A7570",
"f  c #4C4745",
"g  c #5B4D42",
"h  c #564E45",
"j  c #5B5049",
"k  c #5A4A57",
"l  c #5D5450",
"z  c #624F4E",
"x  c #625244",
"c  c #65564D",
"v  c #695749",
"b  c #7C5A45",
"n  c #785947",
"m  c #6E5956",
"M  c #735A51",
"N  c #6A4E5E",
"B  c #57695B",
"V  c #5E6350",
"C  c #5C6956",
"Z  c #7A634C",
"A  c #6C665C",
"S  c #73655C",
"D  c #7A6657",
"F  c #7D725E",
"G  c #5D4773",
"H  c #4F436C",
"J  c #694D6A",
"K  c #6C5566",
"L  c #70536D",
"P  c #7D5F7C",
"I  c #6D5176",
"U  c #477568",
"Y  c #567169",
"T  c #6B6768",
"R  c #756B66",
"E  c #726E6B",
"W  c #786A69",
"Q  c #697262",
"!  c #7C716B",
"~  c #78766B",
"^  c #6F7E7B",
"/  c #7D7C7A",
"(  c #797874",
")  c #6F6179",
"_  c #815C3E",
"`  c #8A593D",
"'  c #86553A",
"]  c #835E42",
"[  c #915E43",
"{  c #835D59",
"}  c #876143",
"|  c #8B6445",
" . c #86634B",
".. c #8A654C",
"X. c #8F6849",
"o. c #936547",
"O. c #93664B",
"+. c #956B4A",
"@. c #9A6E4C",
"#. c #98654A",
"$. c #9D714E",
"%. c #896855",
"&. c #946C54",
"*. c #9D6F58",
"=. c #89735A",
"-. c #9B7151",
";. c #9E735C",
":. c #96755C",
">. c #A26E4E",
",. c #A1734F",
"<. c #A37552",
"1. c #A77955",
"2. c #AA7A55",
"3. c #A3755D",
"4. c #AE7E58",
"5. c #A77A58",
"6. c #876C65",
"7. c #877669",
"8. c #937D6B",
"9. c #997865",
"0. c #84667B",
"q. c #867C76",
"w. c #A37761",
"e. c #A57A63",
"r. c #AA7C65",
"t. c #30817F",
"y. c #5B8678",
"u. c #678277",
"i. c #778878",
"p. c #B4825B",
"a. c #B9855D",
"s. c #AD825E",
"d. c #8B806E",
"f. c #98816E",
"g. c #93837A",
"h. c #9A8679",
"j. c #A7846C",
"k. c #B38668",
"l. c #A38C7D",
"z. c #AF8D76",
"x. c #B48B76",
"c. c #B29078",
"v. c #372D83",
"b. c #3C338C",
"n. c #3A3185",
"m. c #3E3391",
"M. c #41379A",
"N. c #433A9E",
"B. c #4A3E9C",
"V. c #423797",
"C. c #463BA3",
"Z. c #4A3EA6",
"A. c #2E799A",
"S. c #3C4EA0",
"D. c #2969A3",
"F. c #2173A4",
"G. c #564888",
"H. c #5C5784",
"J. c #4E449B",
"K. c #53439B",
"L. c #574898",
"P. c #644D84",
"I. c #685097",
"U. c #676083",
"Y. c #5948A4",
"T. c #806C8F",
"R. c #1E908B",
"E. c #079594",
"W. c #159693",
"Q. c #1B9793",
"!. c #108684",
"~. c #238A84",
"^. c #289A96",
"/. c #349B96",
"(. c #308B83",
"). c #14A19F",
"_. c #27A29D",
"`. c #0B98A6",
"'. c #129FA2",
"]. c #2081A0",
"[. c #02A4A4",
"{. c #02A8A7",
"}. c #01ABAB",
"|. c #0BA8A7",
" X c #17A8A7",
".X c #00AFB0",
"XX c #08B0AE",
"oX c #26AEAB",
"OX c #518F86",
"+X c #4B9086",
"@X c #47918A",
"#X c #569287",
"$X c #579A94",
"%X c #449D9A",
"&X c #668B84",
"*X c #6C9187",
"=X c #9B9796",
"-X c #888684",
";X c #A0948C",
":X c #AA9689",
">X c #B79785",
",X c #B2A297",
"<X c #CCAC9F",
"1X c #CEAEA0",
"2X c #D2B5A8",
"3X c #CFB4A6",
"4X c None",
/* pixels */
"4X4X4X4X4X4X4X4X4X4X4X4X4X4X4X4X4X4X4X4X4X4X4X4X4X4X4X4X4X4X4X4X",
"4X>X>Xl.l.l.l.q.! m D D v c x g = = - h h M F 6.8.c.j.7.j.c.7.4X",
"4Xc.k.$.+.@.+.4 : o X X X . .         . . + : 5 | a.<.5 ,.k.=.4X",
"4X8.+.+.+.< 2 4 & .         . X o + @ @ + + & 1.2.$.| : 2 5 c 4X",
"4X7.6 X.+.# : 5 : .       . @ 1 b  .%.&.{ 9 , p.p.+._ # # # j 4X",
"4Xz.p.| 6 4 2 & 2 +     . @ ..k.x.k.r.x.k.*. .2 : : } p.+.6 A 4X",
"4Xz.p. .6 _ 6 # 5 +   O # n >X2X<Xx.x.3X2X>XO.: : , | a.+.6 R 4X",
"4Xf.$.R E p.p.5 2 O o # 8 O.c.<X>X;.*.x.x.e.6.Z | a.2.+.] 6 R 4X",
"4X8.@.D S 4.5.X.6 & : 3 ` [ 5.3...3 9 4 ' Z u.#Xi.4.@.| _ 6 R 4X",
"4Xl.@.] 6 +.:.k.=.C Q Z 7 ' ` 9 % % % * ; Q /.oX$X7.7 # < 6 R 4X",
"4Xh.| 4 v ! u.*X$X/._.t.U V v , % & a t.t.Q.|.XX%Xi.7 < | ,.7.4X",
"4Xg.6 > h Y (.Q. X|.|.[.W.W.R.U B U W.{.{.{.}.XX#XQ 6 6 2.k.7.4X",
"4X:X2._ v Y d E.}..XXX}.{.}.{.W.R.W.{.}.}.|.oX_.u.=._ 6 +.,.7.4X",
"4X>Xp. .6 B d !.).)._._._.}.}.{.[.[.}.{._.#Xu.i.F $.} 6 | @.W 4X",
"4Xg.7 6 6 f.Q U y.*Xi.i.#X).{.}.[.[.}.E.@X7.e.9.} 6 } @.+.+.x 4X",
"4Xh.7 6 6 5.+.X.5.e.f.j.i.Q.{.{.[.{.}.}.@X8.e.&.] 6 ] +.+.+.x 4X",
"4Xl.@._ 6 ] [ #.*.3.w.w.~ /.}.{.[.}.}.[.+Xf.s.%.7 6 < $ < 5 - 4X",
"4Xh.| } b 5 ` #.>.e.r.e.7./.|.{.[.}.}.[.+Xf.:.&.| X.6 > 5 } - 4X",
"4Xg.6 | @.& ' [ @.e.r.r.f.#X`.`.W.`.`.|.@Xd.-.k.a.p.@.6 X.+.x 4X",
"4Xg.7 X.@.4 ] #.#.e.r.r.9.u.A.F.D.D.F.F.U.S ] 5.s.2.:.=...X.g 4X",
"4Xg.6 | +.6 | >.[ 3.r.e.w.0.L.Z.C.C.C.S.U.J , @.+.+.q.-XD 6 A 4X",
"4X=X! %._ 6 [ +.#.*.w.9.6.0.Y.Z.C.C.C.C.I.L 2 < 7 +.=.%.1 , E 4X",
"4X=X( Z 6 6 ] @.#.{ N G P.B.B.V.m.M.C.C.I.I 5 # 2 +.} 5 : # T 4X",
"4X;X5 > # #.o.7 b J u p V.B.C.V.v.m.C.C.K.I n 5 6 _ $.p.p.p.R 4X",
"4X;X6 2 2 | | 6 ] i u v.M.C.B.V.w n.M.M.B.P.M 6 6 _ ,.p.p.p.! 4X",
"4X;X6 X.@.6 6 5 z u e b.C.M.B.p q v.M.M.B.B.k n +.a.5.+.$.+.R 4X",
"4X:X} } } < 4 @.M u r m.C.C.L.G i w M.C.B.B.L M ..2.$.@.+.$.R 4X",
"4X:X+.] 5 # 4 p.{ a r m.C.B.p J J w M.C.C.I.P T M 5 | +.+.@.E 4X",
"4X:X+._ 6 ,.2.,...z H G.U.U.K m N q V.B.J.G.P 6...| | | 7 Z q.4X",
"4X,X2. .b k.k.$.@. .m K -XU.b b n y H G H.) E &.+.+.] 6 : > f 4X",
"4X4X/ / / q.q.Q ( R R ~ ~ E g g j f k Y E E ! ! ! S c c j l 4X4X",
"4X4X4X4X4X4X4X4X4X4X4X4X4X4X4X4X4X4X4X4X4X4X4X4X4X4X4X4X4X4X4X4X"
};
