/* XPM */
static char * character_xpm[] = {
"32 32 121 2",
"  	c None",
". 	c #000000",
"+ 	c #2F200F",
"@ 	c #2C1E0C",
"# 	c #30210F",
"$ 	c #271A09",
"% 	c #372614",
"& 	c #392715",
"* 	c #3B2917",
"= 	c #422D17",
"- 	c #47301C",
"; 	c #4F3925",
"> 	c #58412B",
", 	c #956F55",
"' 	c #A2755E",
") 	c #A1785E",
"! 	c #A27761",
"~ 	c #AA7C65",
"{ 	c #B2836C",
"] 	c #AB755C",
"^ 	c #9E7157",
"/ 	c #654730",
"( 	c #9E745E",
"_ 	c #B98D76",
": 	c #BE927C",
"< 	c #B68671",
"[ 	c #B88771",
"} 	c #B68B75",
"| 	c #A57157",
"1 	c #92654B",
"2 	c #E4D3CB",
"3 	c #EDE1DC",
"4 	c #EADED7",
"5 	c #E7D9D2",
"6 	c #BB8F7E",
"7 	c #DFCBC1",
"8 	c #BC9483",
"9 	c #A87157",
"0 	c #C29784",
"a 	c #926453",
"b 	c #855B43",
"c 	c #8A6045",
"d 	c #B48C7A",
"e 	c #C39C8A",
"f 	c #956144",
"g 	c #925F40",
"h 	c #925C49",
"i 	c #8C5644",
"j 	c #7D493A",
"k 	c #784537",
"l 	c #895C4B",
"m 	c #A06D56",
"n 	c #86543A",
"o 	c #76553C",
"p 	c #7C563C",
"q 	c #855A3F",
"r 	c #895C42",
"s 	c #7F5B3F",
"t 	c #776148",
"u 	c #01A4A4",
"v 	c #00ACAC",
"w 	c #0BA09E",
"x 	c #1B918C",
"y 	c #1E8D87",
"z 	c #328177",
"A 	c #3E7E72",
"B 	c #7C634A",
"C 	c #8A583B",
"D 	c #935E3F",
"E 	c #795E46",
"F 	c #407B6E",
"G 	c #33847A",
"H 	c #20918A",
"I 	c #119997",
"J 	c #0A9D9C",
"K 	c #04A3A9",
"L 	c #0BA5A4",
"M 	c #009D9D",
"N 	c #8B8472",
"O 	c #7B8675",
"P 	c #06959E",
"Q 	c #6D8879",
"R 	c #967F6B",
"S 	c #149592",
"T 	c #8B7965",
"U 	c #9F7560",
"V 	c #897764",
"W 	c #7A7B6A",
"X 	c #A57A63",
"Y 	c #139B98",
"Z 	c #059BA3",
"` 	c #13A29F",
" .	c #19959A",
"..	c #85826F",
"+.	c #9C766C",
"@.	c #47509B",
"#.	c #3A4BA4",
"$.	c #3E46A2",
"%.	c #344798",
"&.	c #2E5198",
"*.	c #1385A2",
"=.	c #0D8FA3",
"-.	c #936D67",
";.	c #503F9D",
">.	c #463AA4",
",.	c #483CA2",
"'.	c #384196",
").	c #314C96",
"!.	c #147B9A",
"~.	c #168197",
"{.	c #7D766B",
"].	c #44389F",
"^.	c #42369C",
"/.	c #524992",
"(.	c #585288",
"_.	c #57508A",
":.	c #68676E",
"<.	c #6A6A6B",
"[.	c #66656F",
"}.	c #626261",
"|.	c #FFFFFF",
"                + @ @ @ @ # + $ $ $ + + + $ + $                 ",
"  e 8 d d d R N + + % & & & * * * = - - & % + + R d R V R d T   ",
"  d { ^ 1 , 1 p ; > , ' ) ! ~ ~ { ] ) { ^ ^ / - c { | o | { V   ",
"  R 1 1 1 / o p ( ' _ : _ _ < < { [ : : _ } | 1 ] ^ c / o o }.  ",
"  V p 1 1 > / p { } 2 3 4 5 6 ~ { { 7 3 3 4 8 ) ~ 1 s > > > /   ",
"  d ~ c p o o > 9 ] : 0 0 0 a b b c d e e e ) f / / c ~ 1 o }.  ",
"  d ~ c o s p > g f | | h i j k k k i l m ] f n / / c { 1 p <.  ",
"  R , <.<.{ ] p o p q i n n n n n n n n r c s p t { ] 1 b p <.  ",
"u u u v v v v w x y z A B C f D C C n E F G H x I v v v v v u w ",
"u u v u u v u u u v u J G z B b C B z y w u v u u w v v v u u u ",
"u u v v v v v K v v v v v L x x y x L u v v v v u u v v v v u v ",
"J J L L L L J J u u v v v v v u M M v v u u u u w w L L L L J J ",
"N N N N N N N O I M M M v v v v M M v v v v M P Q N N N N N N N ",
"~ ~ ' ' ~ ~ ~ R S P w u v v v v M M v v v v u J T ~ ~ ~ ' ' ~ ~ ",
"~ ~ ' ( ~ ~ U V S M u v v v v u u u v v v v u J W X ~ ~ ( ! ~ ~ ",
"~ ~ ~ ~ ~ ~ ( V Y w v v v v u u v v v v v v Z J W U ~ ~ ~ ~ ~ ~ ",
"~ ~ ~ ~ ~ ~ U T ` u v v v K Z u u v v v v v u J W ' ~ ~ ~ ~ ~ ~ ",
"~ ~ ~ ~ ~ ~ ~ R  .Z P P Z Z Z K K K K v v v u J ..~ ~ ~ ~ ~ ~ ~ ",
"~ ~ ~ ~ U U ~ +.@.#.$.#.#.#.#.#.#.#.%.&.*.=.Z Z ..~ ( ' ~ ~ ~ ~ ",
"U U ~ ~ X ! ! -.;.>.>.>.>.,.>.>.>.>.>.,.'.).!.~.{.' ' X ~ ~ U U ",
"  N p c 1 p c { >.>.>.>.>.>.>.>.>.>.>.>.>.>.$.$.1 1 N N B p }.  ",
"  8 {.a s p s ^ >.>.>.>.>.>.>.>.>.>.>.>.>.>.>.>.p 1 a V o / <.  ",
"  8 {.B p p s , >.>.>.>.>.>.>.>.>.>.>.>.>.>.>.>.o , c o / > <.  ",
"  d o / > 1 1 p >.>.>.>.>.>.>.>.>.>.>.>.>.>.>.>.p p ^ ~ ] ~ {.  ",
"  d p o o c c p >.>.>.>.>.].>.>.>.>.>.].>.>.>.>.p s ^ ~ { ~ {.  ",
"  d p 1 , p p p ].^.^.^.^.^.].^.].^.^.^.^.^.^.>.1 { 9 1 , 1 <.  ",
"  d c c c / o ^ >.>.>.>.>.].>.>.].>.>.>.>.].>.>.1 9 ^ , 1 , <.  ",
"  8 1 s p > o { >.>.>.>.>.>.>.>.>.>.>.>.>.>.>.,.t o c 1 1 , {.  ",
"  8 1 s p | 9 ^ >.>.>.,.,.,.>.>.>.>.>.>.,.,.,.,.1 c c c p B {.  ",
"  e 9 c E { { ^ /./.(.(.(.(././././._.(.(._././.1 1 b p / / >   ",
"    O O O O O <.:.:.:.<.<.:.[.[.[.:.:.:.:.:.[.[.{.}.t }.}.}.    ",
"                }.}.<.<.<.<.}.}.}.}.<.<.<.<.}.}.                "};
