/* XPM */
static char * diamond_xpm[] = {
"32 32 111 2",
"  	c None",
". 	c #B59F8E",
"+ 	c #B59884",
"@ 	c #A38C7D",
"# 	c #9E8A7C",
"$ 	c #8D7D74",
"% 	c #93837A",
"& 	c #AD9280",
"* 	c #89756A",
"= 	c #887367",
"- 	c #7B6D64",
"; 	c #947B6C",
"> 	c #B18F76",
", 	c #A0836E",
"' 	c #B29077",
") 	c #8B796D",
"! 	c #B19079",
"~ 	c #B9855D",
"{ 	c #9D714E",
"] 	c #956B4A",
"^ 	c #9A6E4C",
"/ 	c #79563A",
"( 	c #AA7A55",
"_ 	c #906747",
": 	c #62442E",
"< 	c #5A3D29",
"[ 	c #765339",
"} 	c #8B6445",
"| 	c #A37552",
"1 	c #846B5A",
"2 	c #6C4B33",
"3 	c #725036",
"4 	c #A1734F",
"5 	c #847B75",
"6 	c #714F36",
"7 	c #876143",
"8 	c #AE7E58",
"9 	c #64564E",
"0 	c #868583",
"a 	c #7D593D",
"b 	c #B4825B",
"c 	c #815C3E",
"d 	c #574F4A",
"e 	c #AF8D76",
"f 	c #5E412B",
"g 	c #745B4A",
"h 	c #0C3730",
"i 	c #6D625D",
"j 	c #87644A",
"k 	c #775741",
"l 	c #654832",
"m 	c #756B66",
"n 	c #9B806D",
"o 	c #726F6B",
"p 	c #FFFFFF",
"q 	c #835E41",
"r 	c #7A675B",
"s 	c #73655C",
"t 	c #8F6849",
"u 	c #8A6A54",
"v 	c #B17F58",
"w 	c #A2F6E7",
"x 	c #D1FAF3",
"y 	c #30DBBD",
"z 	c #9A877B",
"A 	c #4AEDD1",
"B 	c #9D7251",
"C 	c #81736B",
"D 	c #8CF4E2",
"E 	c #209581",
"F 	c #625143",
"G 	c #978477",
"H 	c #55463B",
"I 	c #2CCDB1",
"J 	c #1B7B6B",
"K 	c #654731",
"L 	c #594A3E",
"M 	c #95755F",
"N 	c #816E62",
"O 	c #8A664B",
"P 	c #5C4D41",
"Q 	c #888684",
"R 	c #9A9695",
"S 	c #7D716B",
"T 	c #856956",
"U 	c #7F6A5D",
"V 	c #6D503B",
"W 	c #6D6B6A",
"X 	c #9B9896",
"Y 	c #7F7974",
"Z 	c #7E6452",
"` 	c #6B6663",
" .	c #A0948C",
"..	c #A77955",
"+.	c #A39287",
"@.	c #AC9A8E",
"#.	c #705F53",
"$.	c #74716D",
"%.	c #827770",
"&.	c #7B5A43",
"*.	c #7A614F",
"=.	c #B2A297",
"-.	c #B58662",
";.	c #4B4745",
">.	c #7D7B79",
",.	c #817D79",
"'.	c #7C7570",
").	c #727170",
"!.	c #68594F",
"~.	c #59504B",
"{.	c #5D5450",
"                                                                ",
"  . + @ @ @ # $ % % & + @ @ @ # * = = - - = = = ; > , = , ' )   ",
"  ! ~ { ] ^ ] / / / ( ~ { ] ] _ / / / : < [ / / } ~ | [ | ~ 1   ",
"  ; _ ] ] 2 3 / / / ] 4 % 5 6 3 / _ ( ] 7 / / 8 ( { } : 6 [ 9   ",
"  = / _ ] < : / / / } ] 0 % < : / ^ ~ | ] / a ~ b ] c < < < d   ",
"  e b } / [ 6 f } b ] / g h h h h h h a a / / 2 : : 7 b ] [ i   ",
"  e b j k c / f } b _ 3 / h h h h h h / / / / < : l } ~ ] / m   ",
"  n ^ m o ~ 8 / 7 ] [ h h p p p p p p h h ] ] / } ~ ( ] q / m   ",
"  ; ^ r s 8 ( t } 7 / h h p p p p p p h h u u / } v { } a / m   ",
"  @ ] q / ] { ~ ^ h h p p w w w w w x y y h h / q ] a < 2 / m   ",
"  z } 3 2 ] ^ ( h p p x x w w w p p A A A h h / a 7 a 2 } B C   ",
"  % / : < ] ] ^ h p p x x w w w p p A A A h h / / / / / ( ~ )   ",
"  & ( c 6 q c c h p p w w p x x x x x A A y y h h _ c / ] 4 *   ",
"  + ~ j / / / / h p p w w p x x x x x A A y y h h ^ 7 / } ^ m   ",
"  % a / / b h h p w w p p D D D D D D E E A A h h a 7 ] ] ] F   ",
"  G a / / 8 h h p w w x x D D D D D D E E A A y y h q ] ] ] F   ",
"  @ ^ c / / h h p w w x x D D D D D D E E A A y y h 2 < 2 / H   ",
"  G } 7 c 6 h h p x x I I D D D D D D E E J J J J h / K [ q L   ",
"  % / } ^ < h h p x x I I D D D D D D E E J J J J h ^ / t ] F   ",
"  % a } ^ 6 h h p A A A A E E E E E E I I I I E E h M N O } P   ",
"  % / } ] / 7 ~ h A A J J I I I I I I J J I I h h ] $ Q r / i   ",
"  R S T c / c { h A A J J I I I I I I J J I I h h ] u U V K W   ",
"  X Y Z / / c ^ h y y J J I I I I I I J J E E h h ^ 7 [ K < `   ",
"   .[ : < ] _ / h y y J J I I I I I I J J E E h h a { b 8 b -   ",
"   ./ 6 6 } } / q h h E E I I I I I I E E h h / / c 4 b ~ b S   ",
"   ./ _ ^ / / / k k [ h h h h h h h h h h f f / ] ~ ..] ^ ] m   ",
"  +.7 7 7 2 3 { O k 3 h h h h h h h h h h [ [ g O ..{ ^ ] ^ m   ",
"  @.] c / < 6 ~ | / l < [ [ < a ~ ~ ~ } / ] ] ` #.[ } ] ] ^ $.  ",
"  @.] c / | ..4 ^ t / 2 %.C 6 &.| | | q / q } T O } } 7 a *.Y   ",
"  =...j &.-.-.{ B ] 7 / 0 0 / q ^ ] ^ c / / &.] ] ] q / : K ;.  ",
"    >.>.>.,.,.o '.m m m ).o P P F F F S m m - S S s !.9 ~.{.    ",
"                                                                "};
