/* XPM */
static char * exit_xpm[] = {
"32 32 181 2",
"  	c None",
". 	c #B59F8E",
"+ 	c #B59884",
"@ 	c #A38C7D",
"# 	c #9E8A7C",
"$ 	c #8D7D74",
"% 	c #93837A",
"& 	c #AD9280",
"* 	c #89756A",
"= 	c #887367",
"- 	c #7B6D64",
"; 	c #947B6C",
"> 	c #B18F76",
", 	c #A0836E",
"' 	c #B29077",
") 	c #8B796D",
"! 	c #B19079",
"~ 	c #B9855D",
"{ 	c #9D714E",
"] 	c #956B4A",
"^ 	c #9A6E4C",
"/ 	c #79563A",
"( 	c #AA7A55",
"_ 	c #906747",
": 	c #62442E",
"< 	c #5A3D29",
"[ 	c #765339",
"} 	c #8B6445",
"| 	c #A37552",
"1 	c #846B5A",
"2 	c #6C4B33",
"3 	c #725036",
"4 	c #A1734F",
"5 	c #847B75",
"6 	c #714F36",
"7 	c #876143",
"8 	c #AE7E58",
"9 	c #64564E",
"0 	c #868583",
"a 	c #7D593D",
"b 	c #B4825B",
"c 	c #815C3E",
"d 	c #574F4A",
"e 	c #AF8D76",
"f 	c #5E412B",
"g 	c #745B4A",
"h 	c #7B5A43",
"i 	c #6D625D",
"j 	c #87644A",
"k 	c #775741",
"l 	c #654832",
"m 	c #756B66",
"n 	c #9B806D",
"o 	c #726F6B",
"p 	c #835E41",
"q 	c #7A675B",
"r 	c #73655C",
"s 	c #8F6849",
"t 	c #8A6A54",
"u 	c #B17F58",
"v 	c #406A61",
"w 	c #27574D",
"x 	c #6D6B6A",
"y 	c #9A877B",
"z 	c #265A4F",
"A 	c #1D6E5D",
"B 	c #1C725F",
"C 	c #1D6F5D",
"D 	c #275B50",
"E 	c #655952",
"F 	c #9D7251",
"G 	c #81736B",
"H 	c #1D6F5E",
"I 	c #277F6D",
"J 	c #156558",
"K 	c #0F564B",
"L 	c #11584C",
"M 	c #1B705E",
"N 	c #3D6A60",
"O 	c #29786B",
"P 	c #5FCDBA",
"Q 	c #2CAA96",
"R 	c #125F54",
"S 	c #11554B",
"T 	c #145F51",
"U 	c #115649",
"V 	c #3E665E",
"W 	c #816E62",
"X 	c #888684",
"Y 	c #27816E",
"Z 	c #60CDBA",
"` 	c #39BBA7",
" .	c #176B5F",
"..	c #0A3D38",
"+.	c #093A36",
"@.	c #0B4840",
"#.	c #0D4F45",
"$.	c #0E5447",
"%.	c #23534A",
"&.	c #A77955",
"*.	c #926B50",
"=.	c #1E705E",
"-.	c #1A7061",
";.	c #2DAA97",
">.	c #176A5E",
",.	c #093A35",
"'.	c #042924",
").	c #083834",
"!.	c #0B4A41",
"~.	c #0F5348",
"{.	c #125649",
"].	c #625143",
"^.	c #978477",
"/.	c #1D7461",
"(.	c #156054",
"_.	c #0E564C",
":.	c #093B36",
"<.	c #032620",
"[.	c #042822",
"}.	c #083833",
"|.	c #1E7565",
"1.	c #115C4D",
"2.	c #255249",
"3.	c #1E715F",
"4.	c #156154",
"5.	c #0C4A42",
"6.	c #042A24",
"7.	c #032722",
"8.	c #042B26",
"9.	c #0A453D",
"0.	c #125F53",
"a.	c #258271",
"b.	c #165D4F",
"c.	c #3E665D",
"d.	c #55463B",
"e.	c #275C50",
"f.	c #0A463F",
"g.	c #083934",
"h.	c #073632",
"i.	c #083A35",
"j.	c #136458",
"k.	c #176A5B",
"l.	c #654731",
"m.	c #594A3E",
"n.	c #135D50",
"o.	c #0C4E44",
"p.	c #0D4E45",
"q.	c #115D52",
"r.	c #2CA996",
"s.	c #5CC7B5",
"t.	c #1D6557",
"u.	c #95755F",
"v.	c #8A664B",
"w.	c #5C4D41",
"x.	c #24544A",
"y.	c #9A9695",
"z.	c #7D716B",
"A.	c #856956",
"B.	c #7F6A5D",
"C.	c #6D503B",
"D.	c #9B9896",
"E.	c #7F7974",
"F.	c #7E6452",
"G.	c #6B6663",
"H.	c #A0948C",
"I.	c #B58662",
"J.	c #A39287",
"K.	c #AC9A8E",
"L.	c #705F53",
"M.	c #74716D",
"N.	c #827770",
"O.	c #7A614F",
"P.	c #B2A297",
"Q.	c #4B4745",
"R.	c #7D7B79",
"S.	c #817D79",
"T.	c #7C7570",
"U.	c #727170",
"V.	c #68594F",
"W.	c #59504B",
"X.	c #5D5450",
"                                                                ",
"  . + @ @ @ # $ % % & + @ @ @ # * = = - - = = = ; > , = , ' )   ",
"  ! ~ { ] ^ ] / / / ( ~ { ] ] _ / / / : < [ / / } ~ | [ | ~ 1   ",
"  ; _ ] ] 2 3 / / / ] 4 % 5 6 3 / _ ( ] 7 / / 8 ( { } : 6 [ 9   ",
"  = / _ ] < : / / / } ] 0 % < : / ^ ~ | ] / a ~ b ] c < < < d   ",
"  e b } / [ 6 f } b ] / g h / } b { c a a / / 2 : : 7 b ] [ i   ",
"  e b j k c / f } b _ 3 / / c _ b { / / / / / < : l } ~ ] / m   ",
"  n ^ m o ~ 8 / 7 ] [ f [ a ~ b ^ ] ^ c / ] ] / } ~ ( ] p / m   ",
"  ; ^ q r 8 ( s } 7 / 2 / a ( 4 ] _ 7 a / t t / } u { } a / m   ",
"  @ ] p / ] { ~ ^ < p ^ / / / v w v < 6 / x x / p ] a < 2 / m   ",
"  y } 3 2 ] ^ ( _ 2 7 ^ 2 v z A B C D v / 9 E / a 7 a 2 } F G   ",
"  % / : < ] ] ^ } / } ] : H I J K L M C N f < / / / / / ( ~ )   ",
"  & ( c 6 p c c 1 5 1 p H O P Q R S T T U V { / a _ c / ] 4 *   ",
"  + ~ j / / / / W X - [ Y Z `  ...+.@.#.$.%.b / p ^ 7 / } ^ m   ",
"  % a / / b b b &.*.v =.-.;.>.,.'.'.).!.~.{.V / / a 7 ] ] ] ].  ",
"  ^.a / / 8 b b &.] w /.(._.:.'.<.[.}.#.|.1.2./ / / p ] ] ] ].  ",
"  @ ^ c / / c ^ } / } 3.4.5.).6.7.8.9.0.a.b.c.a / / 2 < 2 / d.  ",
"  ^.} 7 c 6 3 } p / c e.M ~.f.g.h.i.j.Q k./ a } } _ / l.[ p m.  ",
"  % / } ^ < : / / / : v C n.o.!.p.q.r.s.t./ p ~ ~ ~ ^ / s ] ].  ",
"  % a } ^ 6 / 4 4 4 c 2 N {.$.~.|.a.k.t.F 2 [ ( ( ( u.W v.} w.  ",
"  % / } ] / 7 ~ ~ ~ ] / b V %.{.1.b.x.~ ~ f l ^ ] ] $ X q / i   ",
"  y.z.A.c / c { { { ( ( _ } ^ V 2.c.4 4 | 3 3 2 a ] t B.C.l.x   ",
"  D.E.F./ / c ^ ] ^ 8 b c c ^ t x 1 ] ^ ] / [ < 3 ^ 7 [ l.< G.  ",
"  H.[ : < ] _ / c ] ] ^ b b / / h / / / / / / [ / a { b 8 b -   ",
"  H./ 6 6 } } / p s s s b 8 c a / [ 3 p p [ [ / / c 4 b ~ b z.  ",
"  H./ _ ^ / / / k k [ / ] ] ^ _ / l < ( I.f f / ] ~ &.] ^ ] m   ",
"  J.7 7 7 2 3 { v.k 3 2 7 7 h 7 ] _ } ^ ( [ [ g v.&.{ ^ ] ^ m   ",
"  K.] c / < 6 ~ | / l < [ [ < a ~ ~ ~ } / ] ] G.L.[ } ] ] ^ M.  ",
"  K.] c / | &.4 ^ s / 2 N.G 6 h | | | p / p } A.v.} } 7 a O.E.  ",
"  P.&.j h I.I.{ F ] 7 / 0 0 / p ^ ] ^ c / / h ] ] ] p / : l.Q.  ",
"    R.R.R.S.S.o T.m m m U.o w.w.].].].z.m m - z.z.r V.9 W.X.    ",
"                                                                "};
