/* XPM */
static char *result[] = {
/* columns rows colors chars-per-pixel */
"32 32 116 2 ",
"   c #593D27",
".  c #5A3D29",
"X  c #5E412B",
"o  c #55463B",
"O  c #594A3E",
"+  c #62442E",
"@  c #654731",
"#  c #654832",
"$  c #6C4B33",
"%  c #714F36",
"&  c #704F38",
"*  c #6D503B",
"=  c #725036",
"-  c #765339",
";  c #79563A",
":  c #7D593D",
">  c #4B4745",
",  c #5C4D41",
"<  c #574F4A",
"1  c #59504B",
"2  c #5D5450",
"3  c #625143",
"4  c #64564E",
"5  c #68594F",
"6  c #775741",
"7  c #745843",
"8  c #7B5A43",
"9  c #745B4A",
"0  c #655952",
"q  c #705F53",
"w  c #7A614F",
"e  c #6D625D",
"r  c #7E6452",
"t  c #73655C",
"y  c #7A675B",
"u  c #75685F",
"i  c #7F6A5D",
"p  c #676360",
"a  c #6B6663",
"s  c #6C6864",
"d  c #6D6B6A",
"f  c #756B66",
"g  c #7B6D64",
"h  c #726F6B",
"j  c #7B6F69",
"k  c #74716D",
"l  c #7D716B",
"z  c #727170",
"x  c #7C7570",
"c  c #7F7974",
"v  c #7D7B79",
"b  c #815C3E",
"n  c #835E41",
"m  c #876143",
"M  c #8B6445",
"N  c #87644A",
"B  c #8A664B",
"V  c #8F6849",
"C  c #906747",
"Z  c #906748",
"A  c #956B4A",
"S  c #9A6E4C",
"D  c #9D714E",
"F  c #856956",
"G  c #8A6A54",
"H  c #846B5A",
"J  c #926B50",
"K  c #947053",
"L  c #9D7251",
"P  c #95755F",
"I  c #9F7A5F",
"U  c #A1734F",
"Y  c #A37552",
"T  c #A77955",
"R  c #AA7A55",
"E  c #AE7E58",
"W  c #B17F58",
"Q  c #816E62",
"!  c #857267",
"~  c #887367",
"^  c #81736B",
"/  c #89756A",
"(  c #8B796D",
")  c #947B6C",
"_  c #827770",
"`  c #847B75",
"'  c #8D7D74",
"]  c #817D79",
"[  c #B4825B",
"{  c #B9855D",
"}  c #9B806D",
"|  c #978477",
" . c #998070",
".. c #93837A",
"X. c #9A877B",
"o. c #9E8A7C",
"O. c #A0836E",
"+. c #B58662",
"@. c #A28370",
"#. c #AF8D76",
"$. c #A38C7D",
"%. c #B18F76",
"&. c #B29077",
"*. c #B19079",
"=. c #868583",
"-. c #888684",
";. c #9A9695",
":. c #9B9896",
">. c #A39287",
",. c #AD9280",
"<. c #A0948C",
"1. c #AC9A8E",
"2. c #B59884",
"3. c #B59F8E",
"4. c #B2A297",
"5. c None",
/* pixels */
"5.5.5.5.5.5.5.5.5.5.5.5.5.5.5.5.5.5.5.5.5.5.5.5.5.5.5.5.5.5.5.5.",
"5.3.2.$.$.$.o.' ....,.2.$.$.$.o./ ~ ~ g g ~ ~ ~ ) %.O.~ O.&.( 5.",
"5.*.{ D A S A ; ; ; R { D A A C ; ; ; + . - ; ; M { Y - Y { H 5.",
"5.) C A A $ = ; ; ; A U ..` % = ; C R A m ; ; E R D M + % - 4 5.",
"5.~ ; C A . + ; ; ; M A =.... + ; S { Y A ; : { [ A b . . . < 5.",
"5.#.[ M ; - % X M [ A ; 9 8 ; M [ D b : : ; ; $ + + m [ A - e 5.",
"5.#.[ N 6 b ; X M [ C = ; ; b C [ D ; ; ; ; ; . + # M { A ; f 5.",
"5.} S f h { E ; m A - X - : { [ S A S b ; A A ; M { R A n ; f 5.",
"5.) S y t E R V M m ; $ ; : R U A C m : ; G G ; M W D M : ; f 5.",
"5.$.A n ; A D { S . n S ; ; ; b S : . % ; d d ; n A : . $ ; f 5.",
"5.X.M = $ A S R C $ m S $ $ $ = ; - $ = ; 4 0 ; : m : $ M L ^ 5.",
"5...; + . A A S M ; M A + . . X   $ ; ; ; X . ; ; ; ; ; R { ( 5.",
"5.,.R b % n b b H ` H n = - U U Y C ; S T Y D ; : C b ; A U / 5.",
"5.2.{ N ; ; ; ; Q -.g - ; : { { { S ; R { { [ ; n S m ; M S f 5.",
"5...: ; ; [ [ [ T J A A : ; b N D b . M D D S ; ; : m A A A 3 5.",
"5.| : ; ; E [ [ T A A A : ; - b A : + N A A C ; ; ; n A A A 3 5.",
"5.$.S b ; ; b S M ; M S b - . + ; m S / ] 6 ; : ; ; $ . $ ; o 5.",
"5.| M m b % = M n ; b n % % @ $ ; b C Q ^ ; : M M C ; @ - n O 5.",
"5...; M S . + ; ; ; + .   . ; ; ; ; ; ; ; ; n { { { S ; V A 3 5.",
"5...: M S % ; U U U b $ A A N b $ m S D L $ - R R R P Q B M , 5.",
"5...; M A ; m { { { A ; [ [ S m   C { { { X # S A A ' -.y ; e 5.",
"5.;.l F b ; b D D D R R C M S B p G U U Y = = $ : A G i * @ d 5.",
"5.:.c r ; ; b S A S E [ b b S G d H A S A ; - . = S m - @ . a 5.",
"5.<.- + . A C ; b A A S [ [ ; ; 8 ; ; ; ; ; ; - ; : D [ E [ g 5.",
"5.<.; % % M M ; n V V V [ E b : ; - = n n - - ; ; b U [ { [ l 5.",
"5.<.; C S ; ; ; 6 6 - ; A A S C ; # . R +.X X ; A { T A S A f 5.",
"5.>.m m m $ = D B 6 = $ m m 8 m A C M S R - - 9 B T D S A S f 5.",
"5.1.A b ; . % { Y ; # . - - . : { { { M ; A A a q - M A A S k 5.",
"5.1.A b ; Y T U S V ; $ _ ^ % 8 Y Y Y n ; n M F B M M m : w c 5.",
"5.4.T N 8 +.+.D L A m ; =.=.; n S A S b ; ; 8 A A A n ; + @ > 5.",
"5.5.v v v ] ] h x f f f z h , , 3 3 3 l f f g l l t 5 4 1 2 5.5.",
"5.5.5.5.5.5.5.5.5.5.5.5.5.5.5.5.5.5.5.5.5.5.5.5.5.5.5.5.5.5.5.5."
};
