/* XPM */
static char * rip_xpm[] = {
"32 32 496 2",
"  	c None",
". 	c #B59F8E",
"+ 	c #B59884",
"@ 	c #A38C7D",
"# 	c #9E8A7C",
"$ 	c #8D7D74",
"% 	c #93837A",
"& 	c #AD9280",
"* 	c #9D8779",
"= 	c #495036",
"- 	c #717576",
"; 	c #6F7374",
"> 	c #6B7073",
", 	c #64696D",
"' 	c #6F8A38",
") 	c #656E48",
"! 	c #626A45",
"~ 	c #887367",
"{ 	c #947B6C",
"] 	c #B18F76",
"^ 	c #A0836E",
"/ 	c #B29077",
"( 	c #8B796D",
"_ 	c #B19079",
": 	c #B9855D",
"< 	c #9D714E",
"[ 	c #956B4A",
"} 	c #9A6E4C",
"| 	c #79563A",
"1 	c #AA7A55",
"2 	c #777B7E",
"3 	c #9CA0A1",
"4 	c #8D9192",
"5 	c #898D8E",
"6 	c #7E8283",
"7 	c #7F8386",
"8 	c #767A7D",
"9 	c #797D80",
"0 	c #616568",
"a 	c #404447",
"b 	c #717477",
"c 	c #8B6445",
"d 	c #A37552",
"e 	c #765339",
"f 	c #846B5A",
"g 	c #906747",
"h 	c #6C4B33",
"i 	c #725036",
"j 	c #745237",
"k 	c #919598",
"l 	c #999DA0",
"m 	c #85898A",
"n 	c #727677",
"o 	c #818586",
"p 	c #787C7F",
"q 	c #84888B",
"r 	c #75797C",
"s 	c #7B7F82",
"t 	c #727679",
"u 	c #414548",
"v 	c #63676A",
"w 	c #62442E",
"x 	c #714F36",
"y 	c #64564E",
"z 	c #5A3D29",
"A 	c #8D9194",
"B 	c #9FA3A6",
"C 	c #818284",
"D 	c #838486",
"E 	c #7E7F81",
"F 	c #7B7C7E",
"G 	c #7A7B7D",
"H 	c #7D7E80",
"I 	c #77787A",
"J 	c #797A7C",
"K 	c #767A7B",
"L 	c #7B7F80",
"M 	c #3C4041",
"N 	c #806561",
"O 	c #815C3E",
"P 	c #574F4A",
"Q 	c #AF8D76",
"R 	c #B4825B",
"S 	c #5E412B",
"T 	c #979B9E",
"U 	c #818588",
"V 	c #78797B",
"W 	c #7F8082",
"X 	c #797D7E",
"Y 	c #737778",
"Z 	c #393A3C",
"` 	c #876143",
" .	c #6D625D",
"..	c #87644A",
"+.	c #775741",
"@.	c #3F2416",
"#.	c #5E6265",
"$.	c #888C8F",
"%.	c #717578",
"&.	c #828387",
"*.	c #7F8084",
"=.	c #7D7D7D",
"-.	c #7C7C7C",
";.	c #787A79",
">.	c #757776",
",.	c #767779",
"'.	c #545557",
").	c #442E1F",
"!.	c #756B66",
"~.	c #9B806D",
"{.	c #726F6B",
"].	c #878B8C",
"^.	c #686C6F",
"/.	c #55595C",
"(.	c #565A5D",
"_.	c #5A5E61",
":.	c #78797D",
"<.	c #818286",
"[.	c #7B7B7B",
"}.	c #797B7A",
"|.	c #7E807F",
"1.	c #717274",
"2.	c #737476",
"3.	c #6A6B6D",
"4.	c #543C31",
"5.	c #835E41",
"6.	c #7A675B",
"7.	c #73655C",
"8.	c #AA7B56",
"9.	c #9CA0A3",
"0.	c #7A7E81",
"a.	c #717276",
"b.	c #797A7E",
"c.	c #7E7E7E",
"d.	c #767676",
"e.	c #7A7C7B",
"f.	c #727375",
"g.	c #777B7C",
"h.	c #3B3F40",
"i.	c #7D593D",
"j.	c #76543B",
"k.	c #5C6063",
"l.	c #9EA2A5",
"m.	c #8B8F92",
"n.	c #5B5F62",
"o.	c #626367",
"p.	c #7E7F83",
"q.	c #7D7E82",
"r.	c #7C7E7D",
"s.	c #777978",
"t.	c #747577",
"u.	c #787C7D",
"v.	c #3E4243",
"w.	c #735238",
"x.	c #9A877B",
"y.	c #6D533E",
"z.	c #64686B",
"A.	c #969B9E",
"B.	c #898E91",
"C.	c #707477",
"D.	c #7D8182",
"E.	c #75797A",
"F.	c #73777A",
"G.	c #44484B",
"H.	c #674931",
"I.	c #9D7251",
"J.	c #81736B",
"K.	c #6D523B",
"L.	c #9DA1A4",
"M.	c #959A9D",
"N.	c #868B8E",
"O.	c #7C8083",
"P.	c #808487",
"Q.	c #7A7E7F",
"R.	c #6F7376",
"S.	c #6D7174",
"T.	c #484C4F",
"U.	c #62452E",
"V.	c #634831",
"W.	c #9CA1A4",
"X.	c #6D7275",
"Y.	c #52575A",
"Z.	c #53585B",
"`.	c #656A6D",
" +	c #7A7F82",
".+	c #7E8386",
"++	c #595E61",
"@+	c #5F6467",
"#+	c #7B8083",
"$+	c #686D71",
"%+	c #474C50",
"&+	c #484D51",
"*+	c #51565A",
"=+	c #696E72",
"-+	c #72777B",
";+	c #72777A",
">+	c #454A4D",
",+	c #694A31",
"'+	c #A1734F",
")+	c #89756A",
"!+	c #5B422C",
"~+	c #606467",
"{+	c #9A9FA2",
"]+	c #676C6F",
"^+	c #5C6164",
"/+	c #686D70",
"(+	c #4E5356",
"_+	c #6C7174",
":+	c #5B6063",
"<+	c #54595D",
"[+	c #7A7F83",
"}+	c #464B4F",
"|+	c #575C60",
"1+	c #757A7D",
"2+	c #44494C",
"3+	c #6C4D34",
"4+	c #876245",
"5+	c #9A9FA3",
"6+	c #63686C",
"7+	c #5C6165",
"8+	c #6C7175",
"9+	c #505558",
"0+	c #787D80",
"a+	c #575C5F",
"b+	c #555D60",
"c+	c #767D83",
"d+	c #5E656B",
"e+	c #474E54",
"f+	c #636A70",
"g+	c #444B51",
"h+	c #70787B",
"i+	c #767B7F",
"j+	c #694A33",
"k+	c #625143",
"l+	c #978477",
"m+	c #825E42",
"n+	c #9B9FA2",
"o+	c #999EA2",
"p+	c #666B6F",
"q+	c #4D5256",
"r+	c #777C7F",
"s+	c #7D8285",
"t+	c #53585C",
"u+	c #7F848A",
"v+	c #63686E",
"w+	c #4C5359",
"x+	c #676F72",
"y+	c #6C7477",
"z+	c #71767A",
"A+	c #44494D",
"B+	c #634630",
"C+	c #5A402C",
"D+	c #626669",
"E+	c #9BA0A3",
"F+	c #6A6F73",
"G+	c #777C80",
"H+	c #505457",
"I+	c #6A6E71",
"J+	c #585C5F",
"K+	c #585B60",
"L+	c #787B80",
"M+	c #65686D",
"N+	c #6C7177",
"O+	c #73787E",
"P+	c #72777D",
"Q+	c #6D7278",
"R+	c #74797D",
"S+	c #41464A",
"T+	c #513825",
"U+	c #55463B",
"V+	c #533B29",
"W+	c #616669",
"X+	c #606569",
"Y+	c #7E8387",
"Z+	c #4D5154",
"`+	c #676B6E",
" @	c #53575A",
".@	c #58595E",
"+@	c #77787D",
"@@	c #62656A",
"#@	c #4A4D52",
"$@	c #6F7279",
"%@	c #6F747A",
"&@	c #686D73",
"*@	c #73787C",
"=@	c #3F4448",
"-@	c #5A3F2A",
";@	c #654731",
">@	c #594A3E",
",@	c #422E20",
"'@	c #696D70",
")@	c #6E7275",
"!@	c #646569",
"~@	c #6D6E73",
"{@	c #5B5E63",
"]@	c #707378",
"^@	c #6E7176",
"/@	c #70757B",
"(@	c #745238",
"_@	c #8F6849",
":@	c #543B29",
"<@	c #94989B",
"[@	c #898D90",
"}@	c #74787B",
"|@	c #76777B",
"1@	c #77787C",
"2@	c #75767A",
"3@	c #737479",
"4@	c #717277",
"5@	c #72757A",
"6@	c #6C6F74",
"7@	c #64696F",
"8@	c #4C5155",
"9@	c #363B3F",
"0@	c #6D5545",
"a@	c #816E62",
"b@	c #8A664B",
"c@	c #5C4D41",
"d@	c #59402C",
"e@	c #95999C",
"f@	c #85898C",
"g@	c #7C7D7F",
"h@	c #7A7A7C",
"i@	c #78787A",
"j@	c #747476",
"k@	c #707175",
"l@	c #717479",
"m@	c #61666A",
"n@	c #42474B",
"o@	c #635852",
"p@	c #888684",
"q@	c #9A9695",
"r@	c #7D716B",
"s@	c #856956",
"t@	c #9A9EA1",
"u@	c #969A9D",
"v@	c #7B7B7D",
"w@	c #767678",
"x@	c #757577",
"y@	c #757479",
"z@	c #737478",
"A@	c #74777C",
"B@	c #595C61",
"C@	c #393E42",
"D@	c #707579",
"E@	c #614C42",
"F@	c #7F6A5D",
"G@	c #6D503B",
"H@	c #6D6B6A",
"I@	c #9B9896",
"J@	c #7F7974",
"K@	c #7E6452",
"L@	c #59402D",
"M@	c #616566",
"N@	c #9A9E9F",
"O@	c #95999A",
"P@	c #828687",
"Q@	c #787878",
"R@	c #777777",
"S@	c #777576",
"T@	c #6D6E72",
"U@	c #4C4F54",
"V@	c #4D5055",
"W@	c #3D4246",
"X@	c #6B4C45",
"Y@	c #6B6663",
"Z@	c #A0948C",
"`@	c #6D4F38",
" #	c #969A9B",
".#	c #7F8384",
"+#	c #797979",
"@#	c #747474",
"##	c #787677",
"$#	c #707072",
"%#	c #6B6F72",
"&#	c #3B3E43",
"*#	c #56595E",
"=#	c #874C3E",
"-#	c #AE7E58",
";#	c #7B6D64",
">#	c #644933",
",#	c #989C9F",
"'#	c #828689",
")#	c #757678",
"!#	c #777779",
"~#	c #5F6064",
"{#	c #474A4F",
"]#	c #984B37",
"^#	c #996D4C",
"/#	c #593F2B",
"(#	c #929699",
"_#	c #79797B",
":#	c #6D6E70",
"<#	c #696D6E",
"[#	c #4A4E51",
"}#	c #525659",
"|#	c #656A6E",
"1#	c #6E7377",
"2#	c #404549",
"3#	c #7D6D6E",
"4#	c #A39287",
"5#	c #4F3828",
"6#	c #94999C",
"7#	c #82878A",
"8#	c #727377",
"9#	c #676A6F",
"0#	c #6B7074",
"a#	c #6A6F75",
"b#	c #43484C",
"c#	c #9C6D4B",
"d#	c #AC9A8E",
"e#	c #423429",
"f#	c #93989B",
"g#	c #8B9093",
"h#	c #73787B",
"i#	c #73767B",
"j#	c #6C7073",
"k#	c #61666C",
"l#	c #666B71",
"m#	c #3C4145",
"n#	c #A17053",
"o#	c #74716D",
"p#	c #4F3E32",
"q#	c #4E5253",
"r#	c #4A5255",
"s#	c #474F52",
"t#	c #485053",
"u#	c #484D53",
"v#	c #474C52",
"w#	c #454A4E",
"x#	c #3E4349",
"y#	c #3B4046",
"z#	c #3C4349",
"A#	c #3D444C",
"B#	c #383F45",
"C#	c #373C40",
"D#	c #3A3D42",
"E#	c #575B5E",
"F#	c #875C46",
"G#	c #7A614F",
"H#	c #B2A297",
"I#	c #A77955",
"J#	c #575B5C",
"K#	c #888D90",
"L#	c #697174",
"M#	c #656D70",
"N#	c #656C72",
"O#	c #666D73",
"P#	c #62696F",
"Q#	c #656A70",
"R#	c #5A6167",
"S#	c #5C6369",
"T#	c #5F666E",
"U#	c #565D65",
"V#	c #575E64",
"W#	c #5B6268",
"X#	c #484B50",
"Y#	c #424649",
"Z#	c #634330",
"`#	c #4B4745",
" $	c #7D7B79",
".$	c #585C5D",
"+$	c #83888B",
"@$	c #7B8084",
"#$	c #6B7278",
"$$	c #686F75",
"%$	c #666F74",
"&$	c #636C73",
"*$	c #616A71",
"=$	c #60676D",
"-$	c #5C636B",
";$	c #5B626A",
">$	c #5D646C",
",$	c #586168",
"'$	c #565F66",
")$	c #5C656C",
"!$	c #565D63",
"~$	c #494C51",
"{$	c #564E49",
"]$	c #5D5450",
"^$	c #4C4F50",
"/$	c #4A4E4F",
"($	c #434A50",
"_$	c #414A4F",
":$	c #3F484F",
"<$	c #3C454C",
"[$	c #3E454B",
"}$	c #3A4149",
"|$	c #383F47",
"1$	c #394249",
"2$	c #374047",
"3$	c #323B42",
"4$	c #343B41",
"5$	c #333A40",
"6$	c #303338",
"7$	c #4B4F52",
"                                                                ",
"  . + @ @ @ # $ % % & + * = - ; > , ' ) ! ~ ~ ~ { ] ^ ~ ^ / (   ",
"  _ : < [ } [ | | | 1 2 3 4 5 6 7 7 8 9 0 a b | c : d e d : f   ",
"  { g [ [ h i | | j k l m 6 n o 9 p q r s t u v 1 < c w x e y   ",
"  ~ | g [ z w | | A B A C D E F G H I J K L L M N [ O z z z P   ",
"  Q R c | e x S s B T U V W H W H F W J X Y Y ; Z w ` R [ e  .  ",
"  Q R ..+.O | @.#.$.8 %.&.*.W J =.-.;.>.G G ,.,.'.).c : [ | !.  ",
"  ~.} !.{.: ` ].^./.(._.:.<.G W [.-.}.|.1.2.G V 3.4.1 [ 5.| !.  ",
"  { } 6.7.8.(.9.9.$.0.(.a.<.b.H c.d.e.;.f.G g.- Y h.< c i.| !.  ",
"  @ [ 5.| j.k.l.l m.9 n.o.*.p.q.G ;.r.s.I t.- Y u.v.w.z h | !.  ",
"  x.c i h y.z.B A.B.s C.%.s 2 2 D.E.Y K 2 t C.F.0.G.H.h c I.J.  ",
"  % | w z K.^.L.M.N.O.2 P.p s s t Q.r 2 R.r 8 S.8 T.U.| 1 : (   ",
"  & 1 O x V.z.L.W.X.Y.Z.`. +.+++@+#+$+%+&+*+=+-+;+>+,+| [ '+)+  ",
"  + : ..| !+~+B {+]+^+/+(+_+.+:+<+[+$+&+, }+|+-+1+2+3+| c } !.  ",
"  % i.| | 4+~+l.5+6+7+8+9+_+0+a+b+c+d+e+f+g+b+h+i+2+j+[ [ [ k+  ",
"  l+i.| | m+z.n+o+p+*+q+Z.r+s+a+t+u+v+g+g+w+x+y+z+A+B+[ [ [ k+  ",
"  @ } O | C+D+E+5+F+|+G+H+I+0.J+K+L+M+}+N+O+P+Q+R+S+T+z h | U+  ",
"  l+c ` O V+W+E+5+X+7+Y+Z+`+P. @.@+@@@#@$@P+%@&@*@=@-@;@e 5.>@  ",
"  % | c } ,@D+n+T F.'@O.v )@q.!@!@q.~@{@]@^@/@%@z+A+(@| _@[ k+  ",
"  % i.c } :@0 n+<@[@}@8 O.2 |@1@2@q.3@4@5@6@Q+7@8@9@0@a@b@c c@  ",
"  % | c [ d@0 n+e@f@G J g@,.h@i@i@j@k@|@l@l@m@n@8@9@o@p@6.|  .  ",
"  q@r@s@O d@0 t@u@7 F J V t.v@w@x@j@y@z@~@A@B@C@D@A+E@F@G@;@H@  ",
"  I@J@K@| L@M@N@O@P@F V -.Q@R@R@S@Q@i@f.T@R.U@V@-+W@X@e ;@z Y@  ",
"  Z@e w z `@M@N@ #.#G J +#Q@R@@###@#$#f.|@%#&#*#-+=@=#R -#R ;#  ",
"  Z@| x x >##.,#<@'#V J V )#w@!#x@j@x@t.~#u {#p+D@=@]#R : R r@  ",
"  Z@| g ^#/#~+l (#7 )#,.I )#)#w@_#:#)#<#[#}#=+|#1#2#3#[ } [ !.  ",
"  4#` ` ` 5#k.t@6#7#8 8 8 r }@2@z@8#:.t 9#0#P+a#1#b#9 c#[ } !.  ",
"  d#[ O | e#~+f#g#s+h#h#i#%.]@R.j#%.I+$+D@=+k#a#l#m#]@n#[ } o#  ",
"  d#[ O p#q#2+Y.<+r#s#t#u#%+v#%+w#A+n@x#y#z#A#B#z#C#D#E#F#G#J@  ",
"  H#I#..J#n K# +L#M#N#O#f+P#P#v+k#X+Q#P#R#S#T#U#V#W#X#Y#Z#;@`#  ",
"     $ $.$; +$@$#$$$%$%$&$*$*$=$=$=$-$;$>$,$'$)$!$d+~$a {$]$    ",
"        ^$/$b#q+e+($_$_$:$:$:$<$z#[$}$|$1$2$3$3$4$5$6$7$        "};
