/* XPM */
static char *result[] = {
/* columns rows colors chars-per-pixel */
"32 32 53 1 ",
"  c #000000",
". c #0D0D0D",
"X c #131313",
"o c #1C1C1C",
"O c #232323",
"+ c #2B2B2B",
"@ c #2F312F",
"# c #323332",
"$ c #3B3C3B",
"% c #3E403E",
"& c #424442",
"* c #474847",
"= c #474948",
"- c #4B4C4B",
"; c #4E504E",
": c #555655",
"> c #575957",
", c #5A5B5A",
"< c #5F615F",
"1 c #636463",
"2 c #666866",
"3 c #6B6C6B",
"4 c #6F716F",
"5 c #6F7270",
"6 c #737473",
"7 c #777877",
"8 c #7B7C7B",
"9 c #7E817F",
"0 c #858685",
"q c #878987",
"w c #878A88",
"e c #8A8C8A",
"r c #8F928F",
"t c #919392",
"y c #959996",
"u c #979A98",
"i c #9A9C9A",
"p c #9FA19F",
"a c #9FA2A0",
"s c #A3A4A3",
"d c #A6A8A6",
"f c #A7AAA8",
"g c #ABADAB",
"h c #AEB1AE",
"j c #AFB2B0",
"k c #B3B6B3",
"l c #B5B8B6",
"z c #B7BAB8",
"x c #BABDBA",
"c c #BDC0BE",
"v c #BFC3C0",
"b c #C3C7C4",
"n c None",
/* pixels */
"nnnnnnnnnnnnnnnnnnnnnnnnnnnnnnnn",
"nklkkkkli463,>>>>9kkkkz73>8ku6nn",
"nlbbbbbbgq00>&&&%0bbbbbe9&8bdq,n",
"nkbbbtrt6$*:fllg&2ttt9731o>teq>n",
"nkvbcq092.%-kbbk%,00q3<<,.-000>n",
"n>&8qq7X+%pbbbq8..X2q1:oo%&&30>n",
"n>&4773O-6pxzzq8 XO,6,-+#33268-n",
"n>&o  O%ebs00008 +&+   &>llle&+n",
"n0e09@#&ebs0003<+,eq000-:ssd9&+n",
"nkbbb&&&ebs000Oo&0bbbbb>-q0q3&+n",
"nkbfp42&6st000O*sgbksii6608>&+on",
"nlbr008&100000O>bbbdq990004    n",
"n0yq008%->-&&&$&38ye009q00061$+n",
"n300008%&&#oX.&&&10q0000000q3&+n",
"n4q00O+&ebcb3%&&&&&$O6qq8O;qfv8n",
"n5q87O$1ubvx3&122,:$o3886 :tgb0n",
"n40$.%4bbbsq:&bbbkq2&O    6bbb9n",
"n40&#0ybxke490hkbk06<%++$8ekjk6n",
"n40;-bbbgq, kbqtbk000,&&,bkq0q>n",
"n<2tiddduq: hbqedi000;@&-teq0q>n",
"n:&zvqq00q> jbq00000q= %&&,q0q>n",
"n>&6723q00, eiqq0003=%$dd&-,:&@n",
"n>%&&><00q> 6qqqq00,.$&cx&&&#  n",
"njcxzOO+++o &-08+++rccxtq06&&$+n",
"nkbbxO+*-*==&&86o+*ibvxeq06-&%+n",
"nkbfs&6bbbbb3&Xo&0bbbiq0000q2  n",
"nfksi&3bckkk6,++&6fklt000086>  n",
"n3qq0&6bg0qqqq&&%&&30qqqq06    n",
"n600026uq11111&>tq33333211,@@+On",
"n30qq08&#    .%2bk02&&%X  O%&&+n",
"nn,>>>-+O     +&96>&+++.  o+++nn",
"nnnnnnnnnnnnnnnnnnnnnnnnnnnnnnnn"
};
