/* XPM */
static char * start_xpm[] = {
"32 32 106 2",
"  	c #696B65",
". 	c #6C716A",
"+ 	c #5B5148",
"@ 	c #533520",
"# 	c #46261E",
"$ 	c #4C2D1D",
"% 	c #54341B",
"& 	c #58371A",
"* 	c #64431B",
"= 	c #583717",
"- 	c #5C3C17",
"; 	c #4C331D",
"> 	c #2D2929",
", 	c #5B3B1B",
"' 	c #603F1A",
") 	c #442520",
"! 	c #502F1B",
"~ 	c #5D625C",
"{ 	c #4F5454",
"] 	c #54463A",
"^ 	c #432B22",
"/ 	c #45311E",
"( 	c #634216",
"_ 	c #4B2D21",
": 	c #4C3322",
"< 	c #4D423A",
"[ 	c #3B3F45",
"} 	c #575959",
"| 	c #6C4A1B",
"1 	c #69471B",
"2 	c #543C22",
"3 	c #6C655D",
"4 	c #7B7B75",
"5 	c #655341",
"6 	c #2D2827",
"7 	c #75531D",
"8 	c #694716",
"9 	c #675A45",
"0 	c #71716B",
"a 	c #534235",
"b 	c #735120",
"c 	c #5D411A",
"d 	c #2B2728",
"e 	c #6B4A22",
"f 	c #4C3B2E",
"g 	c #452A1E",
"h 	c #5D4224",
"i 	c #422E29",
"j 	c #3C2D23",
"k 	c #543A1C",
"l 	c #5D5245",
"m 	c #6C6C69",
"n 	c #3C3132",
"o 	c #2A2126",
"p 	c #332525",
"q 	c #433322",
"r 	c #22242C",
"s 	c #1D222E",
"t 	c #393028",
"u 	c #292E38",
"v 	c #676A6B",
"w 	c #787771",
"x 	c #45342C",
"y 	c #4C3A23",
"z 	c #4E391D",
"A 	c #757572",
"B 	c #686662",
"C 	c #4A332B",
"D 	c #5C3C22",
"E 	c #603F17",
"F 	c #78551F",
"G 	c #646362",
"H 	c #6C4A17",
"I 	c #7B5921",
"J 	c #5A5654",
"K 	c #624424",
"L 	c #60462A",
"M 	c #63492A",
"N 	c #8F8C89",
"O 	c #868682",
"P 	c #513C32",
"Q 	c #332925",
"R 	c #5F4429",
"S 	c #573C28",
"T 	c #694720",
"U 	c #4D3B32",
"V 	c #714F1D",
"W 	c #644926",
"X 	c #5F5F5F",
"Y 	c #555559",
"Z 	c #573717",
"` 	c #85827F",
" .	c #3E3224",
"..	c #65615D",
"+.	c #92908B",
"@.	c #484345",
"#.	c #827F7B",
"$.	c #554E4B",
"%.	c #3D2524",
"&.	c #45382D",
"*.	c #4D4846",
"=.	c #57401F",
"-.	c #4B4B4F",
";.	c #603F20",
">.	c #8C8A86",
",.	c #656963",
"  . . + @ # $ # # $ % & * = - ; > , $ * & ' @ % $ ) ! # # + . ~ ",
"{ ~ ] ^ $ # # # $ $ - , - % - / > - & ( % * % , - $ & _ $ : < [ ",
"} ] % # $ ) $ $ % % ' % = $ = / > * % - _ | % 1 1 % * _ $ $ 2 3 ",
"4 5 ; $ $ $ * % & % * % & * - / 6 , , - ) 1 % 7 * % 8 & $ # & 9 ",
"0 a $ $ % ! b , - & * & c 1 - ; d & ' * $ 1 % e * % | % ; & = 9 ",
"~ f g $ & ^ h : g i 2 ; e * = j j % - 8 & 2 g 2 2 ^ k i $ : ; l ",
"m n o p q r s s s s s d 2 , % d ; - - c j s s s s s s d t s u v ",
"w x j g | y z j y q j i , * % 6 z ( k 8 @ : j j ; q z : | / f A ",
"B C ! ! | D | & 1 & * % * ' & q % E , | & ( ! & 8 , - $ F & h 0 ",
"G C $ ! | % * & H & * & 1 ' - ; ; 8 D 1 & * % - * , & _ I , h m ",
"J C $ ! I @ - & 1 % 8 & * - - ; ; ( K | & 1 & - ( , * $ I & L m ",
"G C ! $ | , = & 1 _ 8 & ( ; = / z c e | & b & ' - @ H D I % M N ",
"O P ! ! 1 D = & | % ( & * ! - g Q = e | , b & ' - $ * K 7 , R 0 ",
"v S ; % 1 D , & | % ( & * & c / 6 k e 7 & 7 , T 8 % ( K 7 k M 0 ",
". U % $ | K * , V & * , - , ( / 6 c , * @ | & * * % | D e % W 0 ",
"} f % $ e D * & | K E , * i - ; 6 - ^ ; * H % ' E & | D e $ h X ",
"Y C $ % e & 1 % | * * & y 6 k z 6 Z 6 Q K 8 % = - - * D | # R 4 ",
"` C ! $ | k | & 1 * ( % j j  .z 6 % j t k H & % & D ' @ e # L w ",
"..C $ $ | & | , , @ ( & 2 j k ; d k j t D | & * ' % * % , _ S 4 ",
".._ $ ; | D | & * D ( , V k ( ; d - & c - | % D 7 & * $ % & D 4 ",
"J _ % % | D ( , ( , ( 1 | & * / 6 c , 8 , E % D 7 K * $ @ , h +.",
"@.^ $ % | & - , ' % ' T e , , 6 6 c k 8 & ( % 1 7 , H % , k h #.",
"$.%.) $ -  .q j q j : h | * , d g - $ c $ q j q y j y C y d &.w ",
"*.p %.d d s s s s s r > 2 * Z > / = # - Q r s s r s s > > s u A ",
"..t # % =. . .y k / =.2 D % % > ; = _ , _ ; %.k * : ; : : Q x A ",
"} C $ @ 1 - 1 , * % 8 , @ @ % d ; ' @ & % k ) , | k ' : & & R   ",
"-.i $ % | % | & - & | ;., ' & d q - _ % ;.* % 1 - % 8 % - - K ` ",
"m C $ % 7 & H , ' & V , * % % d d - $ % ' 1 & e ( k * % - , W 0 ",
"..C $ % | * ( & - , V $ - , % j d c ; % ' | & 1 8 & 8 ! - k R . ",
"-.i % % | * ( % - K 1 _ - - k ; d c ! & , | & & 8 & V ; , k W >.",
"..i & Z - & - % E % ( & % 1 ( z d ( % ( & | & $ 8 D | % - $ R >.",
",.f = = = Z ( $ & & E % @ c = ; Q = $ - , - _ $ * & 1 ; % # R 3 "};
