/* XPM */
static char * sword_xpm[] = {
"32 32 188 2",
"  	c None",
". 	c #123A31",
"+ 	c #0E3D35",
"@ 	c #103F37",
"# 	c #8D7D74",
"$ 	c #93837A",
"% 	c #AD9280",
"& 	c #B59884",
"* 	c #A38C7D",
"= 	c #9E8A7C",
"- 	c #89756A",
"; 	c #887367",
"> 	c #7B6D64",
", 	c #947B6C",
"' 	c #B18F76",
") 	c #A0836E",
"! 	c #B29077",
"~ 	c #8B796D",
"{ 	c #79563A",
"] 	c #AA7A55",
"^ 	c #B9855D",
"/ 	c #9D714E",
"( 	c #956B4A",
"_ 	c #906747",
": 	c #62442E",
"< 	c #5A3D29",
"[ 	c #765339",
"} 	c #8B6445",
"| 	c #A37552",
"1 	c #846B5A",
"2 	c #2BC8AD",
"3 	c #33EACB",
"4 	c #37E7D0",
"5 	c #123936",
"6 	c #A1734F",
"7 	c #847B75",
"8 	c #714F36",
"9 	c #725036",
"0 	c #876143",
"a 	c #AE7E58",
"b 	c #64564E",
"c 	c #074337",
"d 	c #043931",
"e 	c #868583",
"f 	c #9A6E4C",
"g 	c #7D593D",
"h 	c #B4825B",
"i 	c #815C3E",
"j 	c #574F4A",
"k 	c #2BC7B1",
"l 	c #35E7D1",
"m 	c #745B4A",
"n 	c #7B5A43",
"o 	c #6C4B33",
"p 	c #6D625D",
"q 	c #AF8D76",
"r 	c #0E3C3A",
"s 	c #35EACB",
"t 	c #30ECCB",
"u 	c #29C9AD",
"v 	c #32C7AA",
"w 	c #33EBC7",
"x 	c #0C3D39",
"y 	c #654832",
"z 	c #756B66",
"A 	c #9B806D",
"B 	c #30EBCE",
"C 	c #32C6AC",
"D 	c #835E41",
"E 	c #7A675B",
"F 	c #73655C",
"G 	c #0A3F37",
"H 	c #31E6C3",
"I 	c #8A6A54",
"J 	c #B17F58",
"K 	c #6D6B6A",
"L 	c #9A877B",
"M 	c #053C36",
"N 	c #655952",
"O 	c #9D7251",
"P 	c #81736B",
"Q 	c #084037",
"R 	c #0E3837",
"S 	c #33EACE",
"T 	c #2AC9AD",
"U 	c #0C3C3C",
"V 	c #593D27",
"W 	c #5E412B",
"X 	c #29CAAB",
"Y 	c #A77955",
"Z 	c #03261F",
"` 	c #072620",
" .	c #87644A",
"..	c #816E62",
"+.	c #657270",
"@.	c #5BD7B3",
"#.	c #2FEDC1",
"$.	c #2EC8AC",
"%.	c #24CCB2",
"&.	c #39E7C6",
"*.	c #143D41",
"=.	c #092E27",
"-.	c #002820",
";.	c #926B50",
">.	c #636757",
",.	c #0B3A32",
"'.	c #725F4D",
").	c #146254",
"!.	c #156355",
"~.	c #625143",
"{.	c #978477",
"].	c #153F3B",
"^.	c #153D32",
"/.	c #36EDCE",
"(.	c #27C6AA",
"_.	c #23C8AA",
":.	c #3BE8CC",
"<.	c #0A231F",
"[.	c #438271",
"}.	c #1D8874",
"|.	c #022624",
"1.	c #052321",
"2.	c #0A3933",
"3.	c #3A7E71",
"4.	c #208978",
"5.	c #01251B",
"6.	c #55463B",
"7.	c #654731",
"8.	c #594A3E",
"9.	c #8F6849",
"0.	c #00382C",
"a.	c #95755F",
"b.	c #8A664B",
"c.	c #5C4D41",
"d.	c #042720",
"e.	c #0A2423",
"f.	c #0A2520",
"g.	c #1E8B78",
"h.	c #00392C",
"i.	c #082523",
"j.	c #888684",
"k.	c #9A9695",
"l.	c #7D716B",
"m.	c #856956",
"n.	c #525334",
"o.	c #684D1E",
"p.	c #4C371C",
"q.	c #4A3516",
"r.	c #7F6A5D",
"s.	c #6D503B",
"t.	c #9B9896",
"u.	c #7F7974",
"v.	c #7E6452",
"w.	c #6B6663",
"x.	c #A0948C",
"y.	c #081F17",
"z.	c #02211B",
"A.	c #645241",
"B.	c #261D0B",
"C.	c #8A6727",
"D.	c #876827",
"E.	c #003026",
"F.	c #77553D",
"G.	c #391F00",
"H.	c #392202",
"I.	c #614820",
"J.	c #826954",
"K.	c #856B55",
"L.	c #605956",
"M.	c #775741",
"N.	c #B58662",
"O.	c #2C1D0A",
"P.	c #052B1E",
"Q.	c #A39287",
"R.	c #072525",
"S.	c #1F8A7A",
"T.	c #AC9A8E",
"U.	c #705F53",
"V.	c #827770",
"W.	c #B2A297",
"X.	c #7D7B79",
"Y.	c #817D79",
"Z.	c #726F6B",
"`.	c #7C7570",
" +	c #727170",
".+	c #68594F",
"++	c #59504B",
"@+	c #5D5450",
"                                                                ",
"  . + + + + @ # $ $ % & * * * = - ; ; > > ; ; ; , ' ) ; ) ! ~   ",
"  . + + + + @ { { { ] ^ / ( ( _ { { { : < [ { { } ^ | [ | ^ 1   ",
"  . + 2 2 3 4 + 5 { ( 6 $ 7 8 9 { _ ] ( 0 { { a ] / } : 8 [ b   ",
"  . + 2 2 3 4 c d { } ( e $ < : { f ^ | ( { g ^ h ( i < < < j   ",
"  . + 3 3 2 k 3 l + ( { m n { } h / i g g { { o : : 0 h ( [ p   ",
"  q h r r s t u v w x x { { i _ h / { { { { { < : y } ^ ( { z   ",
"  A f + + 3 B 2 C 3 + + [ g ^ h f ( f i { ( ( { } ^ ] ( D { z   ",
"  , f E F + G 3 H 2 3 3 + + ] 6 ( _ 0 g { I I { } J / } g { z   ",
"  * ( D { + G 3 H 2 3 3 + + { i f g < 8 { K K { D ( g < o { z   ",
"  L } 9 o ( f + M 3 2 2 s 3 + + { [ o 9 { b N { g 0 g o } O P   ",
"  $ { : < ( ( Q R S T T s 3 U U V o { { { W < { { { { { ] ^ ~   ",
"  % ] i 8 D i i 1 + 3 3 X 2 3 3 + + { f Y | / Z ` ` ` { ( 6 -   ",
"  & ^  .{ { { { ..+.@.#.$.%.&.&.*.*.{ ] ^ ^ h =.-.` ` { } f z   ",
"  $ g { { h h h Y ;.>.+ 3 3 2 2 3 3 + ,./ '.` ).!.` ` ( ( ( ~.  ",
"  {.g { { a h h Y ( ( ( ].^././.(._.:.:.<.[.}.|.1.{ D ( ( ( ~.  ",
"  * f i { { i f } { } f 2.+ 3 3 2 2 3 3 ` 3.4.5.` { o < o { 6.  ",
"  {.} 0 i 8 9 } D { i D 8 8 + + 3 3 2 2 ` 3.4.5.` _ { 7.[ D 8.  ",
"  $ { } f < : { { { : < V < + + 3 3 2 2 ` 3.4.5.` ^ f { 9.( ~.  ",
"  $ g } f 8 { 6 6 6 i o ( (  .i ` ` ` ` 4.0.` ] ] ] a...b.} c.  ",
"  $ { } ( { 0 ^ ^ ^ ( { h h f 0 d.d.e.f.g.h.i.f ( ( # j.E { p   ",
"  k.l.m.i { i / / / ] ] _ } ` ` !.!.4.g.` n.o.p.q.( I r.s.7.K   ",
"  t.u.v.{ { i f ( f a h i i ` ` !.!.4.g.` n.o.p.q.f 0 [ 7.< w.  ",
"  x.[ : < ( _ { i ( ( f y.` !.!.` ` ` z.{ A.B.C.D.q.q.h a h >   ",
"  x.{ 8 8 } } { D 9.9.9.y.` E.E.{ [ 9 D D F.[ G.H.I.I.J.K.J.L.  ",
"  x.{ _ f { { { M.M.[ { y.` ` ` { y < ] N.W W O.B.o.o.` ` ` P.  ",
"  Q.0 0 0 o 9 / b.M.9 o 0 0 n 0 ( _ } f ] [ [ m b.R.R.S.S.` P.  ",
"  T.( i { < 8 ^ | { y < [ [ < g ^ ^ ^ } { ( ( w.U.` ` 4.g.` P.  ",
"  T.( i { | Y 6 f 9.{ o V.P 8 n | | | D { D } m.b.` ` ` ` ` P.  ",
"  W.Y  .n N.N./ O ( 0 { e e { D f ( f i { { n ( ( ` ` ` ` ` P.  ",
"    X.X.X.Y.Y.Z.`.z z z  +Z.c.c.~.~.~.l.z z > l.l.F .+b ++@+    ",
"                                                                "};
