/* XPM */
static char * test_xpm[] = {
"32 32 107 2",
"  	c None",
". 	c #000000",
"+ 	c #B59F8E",
"@ 	c #B59884",
"# 	c #A38C7D",
"$ 	c #9E8A7C",
"% 	c #8D7D74",
"& 	c #93837A",
"* 	c #AD9280",
"= 	c #89756A",
"- 	c #887367",
"; 	c #7B6D64",
"> 	c #947B6C",
", 	c #B18F76",
"' 	c #A0836E",
") 	c #B29077",
"! 	c #8B796D",
"~ 	c #B19079",
"{ 	c #B9855D",
"] 	c #9D714E",
"^ 	c #956B4A",
"/ 	c #9A6E4C",
"( 	c #79563A",
"_ 	c #AA7A55",
": 	c #906747",
"< 	c #62442E",
"[ 	c #5A3D29",
"} 	c #765339",
"| 	c #8B6445",
"1 	c #A37552",
"2 	c #846B5A",
"3 	c #6C4B33",
"4 	c #725036",
"5 	c #A1734F",
"6 	c #847B75",
"7 	c #714F36",
"8 	c #876143",
"9 	c #AE7E58",
"0 	c #64564E",
"a 	c #868583",
"b 	c #7D593D",
"c 	c #B4825B",
"d 	c #815C3E",
"e 	c #574F4A",
"f 	c #AF8D76",
"g 	c #5E412B",
"h 	c #745B4A",
"i 	c #7B5A43",
"j 	c #6D625D",
"k 	c #87644A",
"l 	c #775741",
"m 	c #654832",
"n 	c #756B66",
"o 	c #9B806D",
"p 	c #726F6B",
"q 	c #835E41",
"r 	c #7A675B",
"s 	c #73655C",
"t 	c #8F6849",
"u 	c #8A6A54",
"v 	c #B17F58",
"w 	c #6D6B6A",
"x 	c #9A877B",
"y 	c #655952",
"z 	c #9D7251",
"A 	c #81736B",
"B 	c #593D27",
"C 	c #A77955",
"D 	c #816E62",
"E 	c #888684",
"F 	c #926B50",
"G 	c #625143",
"H 	c #978477",
"I 	c #817D79",
"J 	c #55463B",
"K 	c #654731",
"L 	c #594A3E",
"M 	c #95755F",
"N 	c #8A664B",
"O 	c #5C4D41",
"P 	c #9A9695",
"Q 	c #7D716B",
"R 	c #856956",
"S 	c #676360",
"T 	c #7F6A5D",
"U 	c #6D503B",
"V 	c #9B9896",
"W 	c #7F7974",
"X 	c #7E6452",
"Y 	c #6B6663",
"Z 	c #A0948C",
"` 	c #B58662",
" .	c #A39287",
"..	c #AC9A8E",
"+.	c #705F53",
"@.	c #74716D",
"#.	c #827770",
"$.	c #7A614F",
"%.	c #B2A297",
"&.	c #4B4745",
"*.	c #7D7B79",
"=.	c #7C7570",
"-.	c #727170",
";.	c #68594F",
">.	c #59504B",
",.	c #5D5450",
"'.	c #FFFFFF",
"                                                                ",
"  + @ # # # $ % & & * @ # # # $ = - - ; ; - - - > , ' - ' ) !   ",
"  ~ { ] ^ / ^ ( ( ( _ { ] ^ ^ : ( ( ( < [ } ( ( | { 1 } 1 { 2   ",
"  > : ^ ^ 3 4 ( ( ( ^ 5 & 6 7 4 ( : _ ^ 8 ( ( 9 _ ] | < 7 } 0   ",
"  - ( : ^ [ < ( ( ( | ^ a & %.%.E %.{ 1 ^ ( b { c ^ d [ [ [ e   ",
"  f c | ( } 7 g | c ^ %.; V %.%.@.%.%.%.%.=.( 3 < < 8 c ^ } j   ",
"  f c k l d ( g | c : %.%.@.%.%.@.%.%.%.%.V ( [ < m | { ^ ( n   ",
"  o / n p { 9 ( 8 ^ } %.%.@.V V @.%.%.%.%.%.^ ( | { _ ^ q ( n   ",
"  > / r s 9 _ t | 8 ( %.%.V a @.%.%.%.%.%.%.u ( | v ] | b ( n   ",
"  # ^ q ( ^ ] { / [ q . B %.V E a B . %.%.%.w ( q ^ b [ 3 ( n   ",
"  x | 4 3 ^ / _ : 3 8 %.V S &.B &.a . %.%.%.y ( b 8 b 3 | z A   ",
"  & ( < [ ^ ^ / | ( | V E . ,.&.&.E %.%.%.%.[ ( ( ( ( ( _ { !   ",
"  * _ d 7 q d d 2 6 2 W B J S S B %.%.%.%.'.] ( b : d ( ^ 5 =   ",
"  @ { k ( ( ( ( D E #.%.s L S *.S %.%.%.a { c ( q / 8 ( | / n   ",
"  & b ( ( c c ( L G J G { 5 '.@.%.%.a V ! @ @ ( ( b 8 ^ ^ ^ G   ",
"  H b ( ( 9 c L L : : s : 5 +.B O L : { { +.@ ( ( ( q ^ ^ ^ G   ",
"  # / d ( ( d 7 G %.: 5 _ } O L #.: J +.D M + b ( ( 3 [ 3 ( J   ",
"  H | 8 d 7 4 b c : @ q 7 7 J '.: L | L + { b | | : ( K } q L   ",
"  & ( | / [ < ( ( ( < [ B [ %.G : L G 7 ) ( q { { { / ( t ^ G   ",
"  & b | / 7 ( 5 5 5 d 3 ^ ^ F : @ J | 7 z 3 } _ _ _ M D N | O   ",
"  & ( | ^ ( 8 { { { ^ ( c c B { _ @ v { { g m / ^ ^ % E r ( j   ",
"  P Q R d ( d ] ] ] _ _ : | g B B B q 3 1 4 4 3 b ^ u T U K w   ",
"  V W X ( ( d / ^ / 9 c d d B B B B B @ ^ ( } [ 4 / 8 } K [ Y   ",
"  Z } < [ ^ : ( d ^ ^ / c c G '.B B B { ( ( ( } ( b ] c 9 c ;   ",
"  Z ( 7 7 | | ( q t t t c 9 %.J G '.#.q q } } ( ( d 5 c { c Q   ",
"  Z ( : / ( ( ( l l } ( ^ ^ s v @ J ! _ ` g g ( ^ { C ^ / ^ n   ",
"   .8 8 8 3 4 ] N l 4 3 8 8 i B #.{ F / _ } } h N C ] / ^ / n   ",
"  ..^ d ( [ 7 { 1 ( m [ } } [ b { { ! | ( ^ ^ Y +.} | ^ ^ / @.  ",
"  ..^ d ( 1 C 5 / t ( 3 #.A 7 i 1 1 1 q ( q | R N | | 8 b $.W   ",
"  %.C k i ` ` ] z ^ 8 ( a a ( q / ^ / d ( ( i ^ ^ ^ q ( < K &.  ",
"    *.*.*.I I p =.n n n -.p O O G G G Q n n ; Q Q s ;.0 >.,.    ",
"                                                                "};
