/* XPM */
static char * zombie_xpm[] = {
"32 32 291 2",
"  	c None",
". 	c #B59F8E",
"+ 	c #B59884",
"@ 	c #A38C7D",
"# 	c #9E8A7C",
"$ 	c #8D7D74",
"% 	c #93837A",
"& 	c #AD9280",
"* 	c #B39782",
"= 	c #9A8776",
"- 	c #928570",
"; 	c #8C836C",
"> 	c #867C69",
", 	c #766C5B",
"' 	c #756A59",
") 	c #78715B",
"! 	c #706E5B",
"~ 	c #716B5C",
"{ 	c #867366",
"] 	c #887367",
"^ 	c #947B6C",
"/ 	c #B18F76",
"( 	c #A0836E",
"_ 	c #B29077",
": 	c #8B796D",
"< 	c #B19079",
"[ 	c #B9855D",
"} 	c #9D714E",
"| 	c #956B4A",
"1 	c #9A6E4C",
"2 	c #79563A",
"3 	c #AA7A55",
"4 	c #A07E53",
"5 	c #556D3B",
"6 	c #50783C",
"7 	c #436B33",
"8 	c #385C28",
"9 	c #3E642C",
"0 	c #3D612C",
"a 	c #3C602C",
"b 	c #3F5E2D",
"c 	c #705638",
"d 	c #8B6445",
"e 	c #A37552",
"f 	c #765339",
"g 	c #846B5A",
"h 	c #906747",
"i 	c #6C4B33",
"j 	c #725036",
"k 	c #8B7248",
"l 	c #466D35",
"m 	c #467036",
"n 	c #426B33",
"o 	c #527840",
"p 	c #588145",
"q 	c #486131",
"r 	c #735839",
"s 	c #AE7E58",
"t 	c #62442E",
"u 	c #714F36",
"v 	c #64564E",
"w 	c #5A3D29",
"x 	c #816C44",
"y 	c #467037",
"z 	c #477036",
"A 	c #5A7948",
"B 	c #5D7C4B",
"C 	c #536D3B",
"D 	c #7D593D",
"E 	c #B4825B",
"F 	c #815C3E",
"G 	c #574F4A",
"H 	c #AF8D76",
"I 	c #5E412B",
"J 	c #6C5E39",
"K 	c #447235",
"L 	c #334D25",
"M 	c #324029",
"N 	c #536F41",
"O 	c #4A613B",
"P 	c #4E5F38",
"Q 	c #755A3E",
"R 	c #876143",
"S 	c #6D625D",
"T 	c #87644A",
"U 	c #775741",
"V 	c #665A36",
"W 	c #3B502F",
"X 	c #3F562E",
"Y 	c #4D5F37",
"Z 	c #654832",
"` 	c #756B66",
" .	c #9B806D",
"..	c #726F6B",
"+.	c #57522E",
"@.	c #365624",
"#.	c #455C2B",
"$.	c #8D6A47",
"%.	c #835E41",
"&.	c #7A675B",
"*.	c #73655C",
"=.	c #8F6849",
"-.	c #82664D",
";.	c #755C46",
">.	c #5D6643",
",.	c #417A41",
"'.	c #2C491E",
").	c #26481E",
"!.	c #344A25",
"~.	c #7A705A",
"{.	c #827667",
"].	c #78573C",
"^.	c #B17F58",
"/.	c #957154",
"(.	c #317876",
"_.	c #2D928E",
":.	c #38A19D",
"<.	c #0E988E",
"[.	c #0D8B80",
"}.	c #0A6961",
"|.	c #144833",
"1.	c #253F1B",
"2.	c #075B53",
"3.	c #259391",
"4.	c #26A09F",
"5.	c #6A6F62",
"6.	c #9A877B",
"7.	c #8B6B50",
"8.	c #2B7572",
"9.	c #058F8F",
"0.	c #00A2A3",
"a.	c #009F9E",
"b.	c #009697",
"c.	c #048885",
"d.	c #20684B",
"e.	c #00A7A7",
"f.	c #0BA7A7",
"g.	c #697265",
"h.	c #9D7251",
"i.	c #81736B",
"j.	c #86684E",
"k.	c #337674",
"l.	c #00A5A6",
"m.	c #02A0A2",
"n.	c #00ACAC",
"o.	c #09A6A6",
"p.	c #806C59",
"q.	c #407C67",
"r.	c #179083",
"s.	c #1E9787",
"t.	c #039D9B",
"u.	c #049B98",
"v.	c #389479",
"w.	c #6B634A",
"x.	c #A1734F",
"y.	c #89756A",
"z.	c #7D6F61",
"A.	c #5D7E4E",
"B.	c #607F4E",
"C.	c #448662",
"D.	c #4B855E",
"E.	c #66804F",
"F.	c #73603F",
"G.	c #A47954",
"H.	c #60793D",
"I.	c #577D43",
"J.	c #49835D",
"K.	c #607B4C",
"L.	c #625143",
"M.	c #978477",
"N.	c #61793B",
"O.	c #4B865F",
"P.	c #5E784B",
"Q.	c #896545",
"R.	c #597337",
"S.	c #63824F",
"T.	c #488B67",
"U.	c #5F7B4B",
"V.	c #766241",
"W.	c #55463B",
"X.	c #816041",
"Y.	c #08959C",
"Z.	c #0B96A4",
"`.	c #627F4D",
" +	c #836B48",
".+	c #654731",
"++	c #594A3E",
"@+	c #77593B",
"#+	c #577466",
"$+	c #3A49A0",
"%+	c #3D43A1",
"&+	c #295897",
"*+	c #5B7644",
"=+	c #AB845A",
"-+	c #9F734E",
";+	c #797A42",
">+	c #5B7246",
",+	c #4E5D62",
"'+	c #453AA2",
")+	c #413699",
"!+	c #395492",
"~+	c #79735D",
"{+	c #695B43",
"]+	c #6E5D3D",
"^+	c #A77A54",
"/+	c #95755F",
"(+	c #816E62",
"_+	c #8A664B",
":+	c #5C4D41",
"<+	c #B7855C",
"[+	c #8E6C4B",
"}+	c #7B5C55",
"|+	c #322C73",
"1+	c #55429D",
"2+	c #AC7C6B",
"3+	c #888684",
"4+	c #9A9695",
"5+	c #7D716B",
"6+	c #856956",
"7+	c #6A4D5E",
"8+	c #503F9C",
"9+	c #986E63",
"0+	c #8A6A54",
"a+	c #7F6A5D",
"b+	c #6D503B",
"c+	c #6D6B6A",
"d+	c #9B9896",
"e+	c #7F7974",
"f+	c #7E6452",
"g+	c #60465B",
"h+	c #372E80",
"i+	c #4438A1",
"j+	c #4F3E9C",
"k+	c #8C655E",
"l+	c #6B6663",
"m+	c #A0948C",
"n+	c #835F65",
"o+	c #4A3B9C",
"p+	c #725255",
"q+	c #7B6D64",
"r+	c #43389E",
"s+	c #4A3B95",
"t+	c #7B5959",
"u+	c #6D4F5F",
"v+	c #3D3290",
"w+	c #513F96",
"x+	c #A97D6F",
"y+	c #A77955",
"z+	c #A39287",
"A+	c #64495C",
"B+	c #9F7265",
"C+	c #745B4A",
"D+	c #AC9A8E",
"E+	c #5D474C",
"F+	c #504095",
"G+	c #705F53",
"H+	c #74716D",
"I+	c #67605C",
"J+	c #423D66",
"K+	c #534C88",
"L+	c #5A557D",
"M+	c #5F5C74",
"N+	c #645F6D",
"O+	c #7A614F",
"P+	c #B2A297",
"Q+	c #7B5A43",
"R+	c #B58662",
"S+	c #727170",
"T+	c #515151",
"U+	c #676766",
"V+	c #686766",
"W+	c #6D6965",
"X+	c #726962",
"Y+	c #736962",
"Z+	c #72645A",
"`+	c #775840",
" @	c #4B4745",
".@	c #7D7B79",
"+@	c #817D79",
"@@	c #7C7570",
"#@	c #717170",
"$@	c #6D6B68",
"%@	c #5E5C4A",
"&@	c #5C5149",
"*@	c #615646",
"=@	c #635448",
"-@	c #625443",
";@	c #7C716B",
">@	c #68594F",
",@	c #59504B",
"'@	c #5D5450",
"                                                                ",
"  . + @ @ @ # $ % % & * = - ; > , ' ) ! ~ { ] ] ^ / ( ] ( _ :   ",
"  < [ } | 1 | 2 2 2 3 4 5 6 7 8 9 9 0 a b c 2 2 d [ e f e [ g   ",
"  ^ h | | i j 2 2 2 | k l m n n o p o l q r 2 s 3 } d t u f v   ",
"  ] 2 h | w t 2 2 2 d x y z m l A A B A C r D [ E | F w w w G   ",
"  H E d 2 f u I d E | J m K o L M N O M P Q 2 i t t R E | f S   ",
"  H E T U F 2 I d E h V n K l L W X X W Y Q 2 w t Z d [ | 2 `   ",
"   .1 ` ..[ s 2 R | f +.n K 8 @.8 @.@.9 #.$.| 2 d [ 3 | %.2 `   ",
"  ^ 1 &.*.s 3 =.d -.;.>.,.K @.'.'.L '.).!.~.{.].d ^.} d D 2 `   ",
"  @ | %.2 | } [ /.(._.:.<.[.}.|.1.1.|.2.}.3.4.5.%.| D w i 2 `   ",
"  6.d j i | 1 3 7.8.9.0.a.a.b.c.d.d.c.a.0.e.f.g.D R D i d h.i.  ",
"  % 2 t w | | 1 j.k.b.l.0.a.m.a.9.9.m.n.e.n.o.g.2 2 2 2 3 [ :   ",
"  & 3 F u %.F F p.q.r.s.s.r.t.a.u.b.l.0.s.v.v.w.D h F 2 | x.y.  ",
"  + [ T 2 2 2 2 z.A.p B.B C.9.a.0.t.l.u.D.B E.F.%.1 R 2 d 1 `   ",
"  % D 2 2 E E E G.H.I.B.A C.u.e.m.0.e.u.J.A K.F.2 D R | | | L.  ",
"  M.D 2 2 s E E G.N.o B.B.C.a.n.a.l.n.u.O.B.P.F.2 2 %.| | | L.  ",
"  @ 1 F 2 2 F 1 Q.R.o B.S.T.e.n.a.e.n.t.O.S.U.V.2 2 i w i 2 W.  ",
"  M.d R F u j d X.R.I.S.S.T.Y.Y.Z.Z.m.t.D.B.`. +d h 2 .+f %.++  ",
"  % 2 d 1 w t 2 @+R.p B S.#+$+$+%+%+&+9.J.B *+=+[ [ 1 2 =.| L.  ",
"  % D d 1 u 2 x.-+;+*+>+P.,+'+'+'+'+)+!+~+{+]+^+3 3 /+(+_+d :+  ",
"  % 2 d | 2 R [ [ <+[+Q }+|+'+'+'+'+'+1+2+I Z 1 | | $ 3+&.2 S   ",
"  4+5+6+F 2 F } } } 3 3 7+|+'+'+'+'+'+8+9+j j i D | 0+a+b+.+c+  ",
"  d+e+f+2 2 F 1 | 1 s E g+h+'+'+'+i+i+j+k+2 f w j 1 R f .+w l+  ",
"  m+f t w | h 2 F | | 1 n+h+'+'+'+i+i+o+p+2 2 f 2 D } E s E q+  ",
"  m+2 u u d d 2 %.=.=.=.n+h+r+r+i+r+)+s+t+f f 2 2 F x.E [ E 5+  ",
"  m+2 h 1 2 2 2 U U f 2 u+h+)+v+r+r+v+w+x+I I 2 | [ y+| 1 | `   ",
"  z+R R R i j } _+U j i A+h+r+r+i+i+i+j+B+f f C+_+y+} 1 | 1 `   ",
"  D+| F 2 w u [ e 2 Z w E+h+i+i+i+r+r+F+p+| | l+G+f d | | 1 H+  ",
"  D+| F 2 e y+x.1 =.2 i I+J+K+K+L+L+M+N+Q %.d 6+_+d d R D O+e+  ",
"  P+y+T Q+R+R+} h.| R 2 S+T+U+V+W+X+Y+Z+`+2 Q+| | | %.2 t .+ @  ",
"    .@.@.@+@+@..@@` ` ` #@$@%@&@*@=@-@;@` ` q+5+5+*.>@v ,@'@    ",
"                                                                "};
